<svg aria-hidden="true" style="width:0;height:0;position:absolute;overflow:hidden" xmlns="http://www.w3.org/2000/svg"><defs><symbol id="icon-search" viewBox="0 0 32 32"><path fill="none" stroke="#fff" stroke-width="2.667" stroke-linecap="round" stroke-linejoin="round" style="stroke:var(--color1,#fff)" d="M14.667 25.333c5.891 0 10.667-4.776 10.667-10.667S20.558 3.999 14.667 3.999 4 8.775 4 14.666s4.776 10.667 10.667 10.667zM28 28.001l-5.8-5.8"/></symbol><symbol id="icon-close" viewBox="0 0 32 32"><path stroke-width="2.133" d="m8.533 8.533 14.933 14.933M8.533 23.467 23.466 8.534"/></symbol><symbol id="icon-arrow_right" viewBox="0 0 32 32"><path stroke-width="2.667" stroke-linecap="round" stroke-linejoin="round" d="M25.333 16H6.666M16 25.334l-9.333-9.333L16 6.668"/></symbol><symbol id="icon-arrow_left" viewBox="0 0 32 32"><path stroke-width="2.667" stroke-linecap="round" stroke-linejoin="round" d="M6.667 16h18.667M16 25.334l9.333-9.333L16 6.668"/></symbol><symbol id="icon-heart" viewBox="0 0 32 32"><path fill="#ff6b08" style="fill:var(--color2,#ff6b08)" d="m16 30.583-2.24-2.24C5.44 20.983 0 16.023 0 9.943c0-4.96 3.84-8.8 8.8-8.8 2.72 0 5.44 1.28 7.2 3.36 1.76-2.08 4.48-3.36 7.2-3.36 4.96 0 8.8 3.84 8.8 8.8 0 6.08-5.44 11.04-13.76 18.4L16 30.583z"/></symbol><symbol id="icon-film" viewBox="0 0 32 32"><path fill="none" stroke="#fff" stroke-width="2.667" stroke-linecap="round" stroke-linejoin="round" style="stroke:var(--color1,#fff)" d="M26.427 2.667H5.574a2.907 2.907 0 0 0-2.907 2.907v20.853a2.907 2.907 0 0 0 2.907 2.907h20.853a2.907 2.907 0 0 0 2.907-2.907V5.574a2.907 2.907 0 0 0-2.907-2.907zM9.333 2.667v26.667M22.667 2.667v26.667M2.667 16h26.667M2.667 9.333h6.667M2.667 22.667h6.667M22.667 22.667h6.667M22.667 9.333h6.667"/></symbol><symbol id="icon-youtube" viewBox="0 0 32 32"><path fill="#ff3d00" style="fill:var(--color1,#ff3d00)" d="M28.8 22.6a3.33 3.33 0 0 1-2.8 2.667C23.8 25.6 20.133 26 16 26c-4.067 0-7.733-.4-10-.733A3.33 3.33 0 0 1 3.2 22.6c-.267-1.533-.533-3.8-.533-6.6s.267-5.067.533-6.6A3.33 3.33 0 0 1 6 6.733C8.2 6.4 11.867 6 16 6s7.733.4 10 .733A3.33 3.33 0 0 1 28.8 9.4c.267 1.533.6 3.8.6 6.6-.067 2.8-.333 5.067-.6 6.6z"/><path fill="#fff" style="fill:var(--color2,#fff)" d="M13.333 20.667v-9.333l8 4.667z"/></symbol><symbol id="icon-youtube1" viewBox="0 0 32 32"><path d="M16 26.5c-3.179 0-6.358-.098-9.649-.292a4.965 4.965 0 0 1-4.654-4.593 80.94 80.94 0 0 1 0-11.23 4.967 4.967 0 0 1 4.654-4.594 159.722 159.722 0 0 1 19.299 0 4.965 4.965 0 0 1 4.654 4.593 80.63 80.63 0 0 1 0 11.23 4.966 4.966 0 0 1-4.654 4.594c-3.291.195-6.471.292-9.649.292zm9.591-1.29a3.964 3.964 0 0 0 3.715-3.666 79.56 79.56 0 0 0 0-11.091 3.963 3.963 0 0 0-3.715-3.665 159 159 0 0 0-19.181 0 3.966 3.966 0 0 0-3.716 3.666 79.7 79.7 0 0 0 .001 11.09 3.963 3.963 0 0 0 3.715 3.665 158.59 158.59 0 0 0 19.181 0z"/><path d="M12.5 19.92v-7.84L19.22 16z"/><path d="M12 20.791V11.21L20.212 16l-8.213 4.791zm1-7.841v6.098l5.228-3.049L13 12.949z"/></symbol><symbol id="icon-youtube-logo" viewBox="0 0 32 32"><path fill="#455a64" style="fill:var(--color3,#455a64)" d="M9.693 4h1.417l.913 3.664h.089l.872-3.662h1.431l-1.639 5.357v3.974h-1.408V9.531L9.693 4zm4.657 3.949c0-.523.169-.941.506-1.249.336-.311.788-.467 1.357-.467.519 0 .942.163 1.272.491.33.325.495.747.495 1.263v3.49c0 .577-.161 1.032-.485 1.363-.324.329-.768.494-1.338.494-.549 0-.985-.173-1.316-.511-.329-.339-.492-.796-.492-1.37V7.949h.001zm1.287 3.63c0 .183.044.329.137.431.088.1.215.151.381.151.17 0 .303-.051.403-.156a.585.585 0 0 0 .151-.425V7.899a.46.46 0 0 0-.154-.357.58.58 0 0 0-.399-.137.527.527 0 0 0-.374.137.474.474 0 0 0-.143.357v3.681zm6.975-5.176v6.93h-1.25v-.844c-.231.276-.47.485-.721.627-.248.143-.49.217-.724.217-.29 0-.507-.099-.654-.301-.147-.2-.219-.501-.219-.905V6.403h1.249v5.257c0 .157.027.273.08.346.05.069.138.108.253.108.094 0 .21-.047.348-.143.142-.094.271-.216.387-.363V6.403h1.25z"/><path fill="#fff" style="fill:var(--color2,#fff)" d="M25.866 17.626c0-1.561-1.293-2.827-2.886-2.827a162.604 162.604 0 0 0-6.98-.132c-2.375-.003-4.704.037-6.98.132-1.591 0-2.885 1.265-2.885 2.827A46.37 46.37 0 0 0 6 21.334c-.003 1.235.04 2.471.136 3.707 0 1.563 1.292 2.829 2.884 2.829 2.276.093 4.605.133 6.98.13a162.68 162.68 0 0 0 6.98-.13c1.593 0 2.886-1.265 2.886-2.829.095-1.236.139-2.472.134-3.707a45.906 45.906 0 0 0-.134-3.708z"/><path fill="#f44336" style="fill:var(--color4,#f44336)" d="M22.567 20.231c-.146 0-.245.039-.305.12-.043.061-.097.199-.097.501v.516h.795v-.516c0-.297-.055-.437-.101-.505-.057-.079-.153-.117-.293-.117zm-4.657.026a.654.654 0 0 0-.172.129v3.917a.851.851 0 0 0 .211.161.502.502 0 0 0 .231.053c.154 0 .202-.061.217-.082.038-.047.079-.146.079-.36v-3.337c0-.185-.035-.329-.101-.417-.089-.119-.265-.165-.465-.065z"/><path fill="#f44336" style="fill:var(--color4,#f44336)" d="M25.866 17.626c0-1.561-1.293-2.827-2.886-2.827a162.604 162.604 0 0 0-6.98-.132c-2.375-.003-4.704.037-6.98.132-1.591 0-2.885 1.265-2.885 2.827A46.37 46.37 0 0 0 6 21.334c-.003 1.235.04 2.471.136 3.707 0 1.563 1.292 2.829 2.884 2.829 2.276.093 4.605.133 6.98.13a162.68 162.68 0 0 0 6.98-.13c1.593 0 2.886-1.265 2.886-2.829.095-1.236.139-2.472.134-3.707a45.906 45.906 0 0 0-.134-3.708zm-15.399 7.962a.137.137 0 0 1-.137.136H8.964a.137.137 0 0 1-.137-.136v-7.353H7.551a.137.137 0 0 1-.137-.135v-1.269c0-.075.061-.136.137-.136h4.194c.076 0 .137.061.137.136V18.1a.136.136 0 0 1-.137.135h-1.277v7.353zm4.863 0a.137.137 0 0 1-.137.136h-1.215a.137.137 0 0 1-.137-.136v-.367a2.439 2.439 0 0 1-.492.373 1.538 1.538 0 0 1-.773.224c-.325 0-.576-.117-.745-.345-.159-.216-.241-.535-.241-.947v-5.4c0-.075.061-.136.138-.136h1.214c.076 0 .137.061.137.136v4.952c0 .163.029.229.048.255.009.011.033.045.137.045.035 0 .115-.015.259-.113.117-.077.223-.173.315-.283v-4.855c0-.075.061-.136.138-.136h1.214c.076 0 .137.061.137.136v6.461h.002zM20 24.249c0 .491-.106.873-.315 1.139-.217.279-.531.417-.932.417-.255 0-.489-.051-.697-.155a1.441 1.441 0 0 1-.319-.217v.155a.136.136 0 0 1-.137.136h-1.225a.137.137 0 0 1-.138-.136v-8.76c0-.075.061-.135.138-.135H17.6c.075 0 .137.061.137.135v2.478c.1-.091.207-.167.316-.229.206-.113.417-.171.627-.171.427 0 .762.159.989.471.219.3.33.734.33 1.289L20 24.249zm4.486-1.739a.138.138 0 0 1-.138.137h-2.182v1.081c0 .395.055.563.099.634.035.059.101.133.292.133.153 0 .259-.037.313-.109.025-.039.093-.187.093-.659v-.45c0-.076.062-.136.138-.136h1.248c.076 0 .137.06.137.136v.486c0 .696-.166 1.229-.491 1.589-.327.362-.82.547-1.465.547-.581 0-1.049-.197-1.386-.581-.333-.381-.503-.903-.503-1.555v-2.901c0-.595.185-1.087.553-1.464.367-.379.849-.571 1.429-.571.593 0 1.058.181 1.381.535.32.351.483.856.483 1.501v1.649h.001z"/></symbol><symbol id="icon-youtube-logo1" viewBox="0 0 32 32"><path d="m9.6 3.2 1.28 3.84 1.28-3.84h1.28l-1.92 5.76v3.84h-1.28V8.96L8.32 3.2zm5.76 2.56c-.682 0-1.018.107-1.435.45-.4.338-.51.598-.485 1.47v3.2c0 .637.105 1.058.49 1.43.4.373.777.49 1.43.49.683 0 1.055-.117 1.44-.49.4-.357.48-.793.48-1.43v-3.2c0-.565-.1-1.1-.488-1.458-.4-.367-.813-.463-1.433-.463zm4.48 0v5.12c0 .613.508.64.64.64.117 0 .633-.203.64-.64V5.76h1.28v7.04h-1.28v-.64c-.282.313-.628.64-1.28.64s-1.28-.658-1.28-1.28V5.76zm-4.48 1.28c.193 0 .64-.003.64.64v3.2c0 .62-.432.64-.64.64-.193 0-.64-.008-.64-.64v-3.2c0-.522.277-.64.64-.64zM6.4 14.08c-2.3 0-3.84 1.525-3.84 3.84V24c0 2.315 1.54 4.16 3.84 4.16h19.2c2.3 0 3.84-1.525 3.84-3.84v-6.4c0-2.315-1.54-3.84-3.84-3.84zm1.28 2.56h3.84v1.28h-1.28v7.68H8.96v-7.68H7.68zm8.96 0h1.28v2.56c.148-.23.367-.413.578-.515.205-.105.413-.165.622-.165.415 0 .74.15.962.43.223.282.398.657.398 1.21V24c0 .475-.16.77-.37 1.023-.205.253-.512.573-.91.578-.672.008-1.032-.352-1.28-.64v.64h-1.28zm-5.12 1.92h1.28v5.12c0 .148.172.645.64.64.52-.005.525-.49.64-.64v-5.12h1.28v7.04h-1.28v-.64c-.238.28-.36.367-.627.5-.265.15-.535.14-.785.14-.31 0-.662-.28-.828-.49-.148-.192-.32-.39-.32-.79zm11.648 0c.608 0 1.035.13 1.357.47.33.34.435.738.435 1.378V22.4H22.4v.99c0 .358.047.585.14.72.087.148.265.212.5.21.26-.003.425-.055.512-.172.09-.105.128-.402.128-.788v-.32h1.28v.38c0 .698-.055 1.218-.4 1.558-.325.358-.832.523-1.497.523-.608 0-1.082-.18-1.422-.55s-.517-.878-.517-1.53v-3.012c0-.58.203-1.01.575-1.393.3-.308.863-.455 1.47-.455zm-4.608.96c.352 0 .64.32.64.96v3.215c0 .352-.288.625-.64.625s-.635-.135-.64-.32v-3.84c.005-.323.288-.64.64-.64zm4.48.32c.352 0 .64.247.64.64v.64H22.4v-.64a.651.651 0 0 1 .64-.64z"/></symbol><symbol id="icon-github" viewBox="0 0 32 32"><path d="M11.386 29.975a1.28 1.28 0 0 0 .774-1.175v-3.456c0-.126.01-.257.026-.39l-.026.006H9.856c-.96 0-1.792-.384-2.176-1.152-.448-.832-.64-2.24-1.792-3.008-.192-.128-.064-.32.32-.32.384.064 1.216.576 1.728 1.28.576.704 1.152 1.28 2.176 1.28 1.592 0 2.445-.08 2.958-.355.598-.889 1.425-1.565 2.29-1.565v-.016c-3.628-.116-5.945-1.322-7.024-3.184-2.346.027-4.388.259-5.553.452-.037-.209-.069-.42-.097-.632 1.15-.189 3.1-.414 5.341-.457a5.109 5.109 0 0 1-.186-.543 41.363 41.363 0 0 0-5.24.062c-.013-.212-.03-.424-.033-.639a41.97 41.97 0 0 1 5.132-.071 6.241 6.241 0 0 1-.083-.988c0-1.088.384-2.24 1.088-3.2-.32-1.088-.768-3.392.128-4.224 1.728 0 2.944.832 3.52 1.344 1.087-.449 2.303-.705 3.647-.705s2.56.256 3.584.704c.576-.512 1.792-1.344 3.52-1.344.96.896.448 3.2.128 4.224.704.96 1.088 2.048 1.024 3.2 0 .31-.029.609-.07.902a42.326 42.326 0 0 1 5.251.065c-.001.216-.021.426-.033.639a41.569 41.569 0 0 0-5.35-.057 5.293 5.293 0 0 1-.208.627c2.269.029 4.266.249 5.471.441-.028.212-.06.423-.097.632-1.224-.196-3.309-.425-5.683-.436-1.066 1.842-3.341 3.043-6.897 3.183v.02c1.664 0 3.2 2.496 3.2 4.224v3.456c0 .527.319.979.774 1.175 5.863-1.94 10.106-7.47 10.106-13.975 0-8.116-6.603-14.72-14.72-14.72S1.28 7.883 1.28 15.999c0 6.505 4.243 12.035 10.106 13.975z"/></symbol><symbol id="icon-github1" viewBox="0 0 32 32"><path d="M16 3.2C8.931 3.2 3.2 8.931 3.2 16c0 5.998 4.13 11.017 9.698 12.405a1.861 1.861 0 0 1-.098-.622v-2.188h-1.609c-.876 0-1.654-.377-2.032-1.076-.419-.778-.492-1.967-1.531-2.694-.308-.242-.074-.518.282-.481.656.186 1.2.636 1.712 1.303.51.669.75.82 1.702.82.462 0 1.153-.027 1.804-.129.35-.889.955-1.707 1.694-2.093-4.262-.438-6.297-2.559-6.297-5.438 0-1.239.528-2.438 1.425-3.449-.294-1.003-.665-3.047.113-3.826 1.918 0 3.077 1.244 3.356 1.58a9.604 9.604 0 0 1 3.108-.513c1.105 0 2.159.186 3.117.515.275-.334 1.436-1.582 3.358-1.582.781.78.406 2.833.109 3.834.892 1.008 1.417 2.204 1.417 3.441 0 2.877-2.031 4.996-6.287 5.437 1.171.611 2.026 2.329 2.026 3.622v2.916c0 .111-.025.191-.037.286 4.988-1.748 8.571-6.484 8.571-12.069 0-7.069-5.731-12.8-12.8-12.8z"/></symbol><symbol id="icon-github2" viewBox="0 0 32 32"><path d="M12.504 28.003c-.002-.184-.003-.981-.005-1.727l-.002-.775c-3.364.457-4.179-1.89-4.188-1.915-.467-1.184-1.106-1.523-1.133-1.537l-.062-.036c-.231-.158-.846-.579-.671-1.131.157-.498.768-.55 1.045-.541 1.537.108 2.315 1.489 2.347 1.547.784 1.345 1.982 1.206 2.755.922.072-.344.184-.66.329-.939-2.478-.439-5.285-1.758-5.285-6.552 0-1.316.41-2.48 1.221-3.465-.181-.603-.387-1.833.223-3.383l.087-.221.226-.072c.208-.069 1.344-.312 3.679 1.216a12.532 12.532 0 0 1 3.037-.38c1.058.005 2.079.133 3.045.38 2.334-1.529 3.467-1.283 3.675-1.216l.226.072.087.22c.613 1.549.407 2.78.226 3.383.809.982 1.219 2.146 1.219 3.465 0 4.796-2.811 6.11-5.294 6.544.282.532.434 1.201.434 1.939 0 .841-.003 3.602-.008 4.201l-1-.007c.004-.598.008-3.354.008-4.195 0-1.221-.471-1.761-.675-1.937l-.865-.748 1.137-.127c2.602-.289 5.262-1.189 5.262-5.671 0-1.165-.389-2.181-1.155-3.018l-.215-.235.121-.293c.083-.2.447-1.221-.021-2.646-.379.023-1.284.201-2.792 1.223l-.192.13-.223-.062a11.57 11.57 0 0 0-3-.403 11.532 11.532 0 0 0-2.992.403l-.223.062-.191-.13c-1.51-1.022-2.417-1.202-2.797-1.225-.467 1.425-.103 2.446-.02 2.646l.121.293-.214.235c-.768.841-1.157 1.856-1.157 3.018 0 4.479 2.655 5.385 5.252 5.68l1.126.128-.854.745c-.186.163-.515.556-.627 1.363l-.037.274-.253.113c-.661.296-2.92 1.081-4.274-1.242-.008-.012-.272-.473-.751-.779.323.32.716.837 1.034 1.643.033.095.678 1.811 3.64 1.169l.603-.131.006 1.989c.002.744.003 1.538.005 1.722l-.999.007z"/><path d="M16 29C8.832 29 3 23.169 3 16S8.832 3 16 3s13 5.832 13 13-5.831 13-13 13zm0-25C9.383 4 4 9.383 4 16s5.383 12 12 12 12-5.383 12-12S22.617 4 16 4z"/></symbol></defs></svg>