<svg aria-hidden="true" style="position: absolute; width: 0; height: 0; overflow: hidden;" version="1.1" xmlns="http://www.w3.org/2000/svg" xmlns:xlink="http://www.w3.org/1999/xlink">
<defs>
<symbol id="icon-search" viewBox="0 0 32 32">
<path fill="none" stroke="#fff" stroke-width="2.6667" stroke-miterlimit="4" stroke-linecap="round" stroke-linejoin="round" style="stroke: var(--color1, #fff)" d="M14.667 25.333c5.891 0 10.667-4.776 10.667-10.667s-4.776-10.667-10.667-10.667c-5.891 0-10.667 4.776-10.667 10.667s4.776 10.667 10.667 10.667z"></path>
<path fill="none" stroke="#fff" stroke-width="2.6667" stroke-miterlimit="4" stroke-linecap="round" stroke-linejoin="round" style="stroke: var(--color1, #fff)" d="M28 28.001l-5.8-5.8"></path>
</symbol>
<symbol id="icon-close" viewBox="0 0 32 32">
<path stroke-width="2.1333" stroke-miterlimit="4" stroke-linecap="butt" stroke-linejoin="miter" d="M8.533 8.533l14.933 14.933"></path>
<path stroke-width="2.1333" stroke-miterlimit="4" stroke-linecap="butt" stroke-linejoin="miter" d="M8.533 23.467l14.933-14.933"></path>
</symbol>
<symbol id="icon-arrow_right" viewBox="0 0 32 32">
<path stroke-width="2.6667" stroke-miterlimit="4" stroke-linecap="round" stroke-linejoin="round" d="M25.333 16h-18.667"></path>
<path stroke-width="2.6667" stroke-miterlimit="4" stroke-linecap="round" stroke-linejoin="round" d="M16 25.334l-9.333-9.333 9.333-9.333"></path>
</symbol>
<symbol id="icon-arrow_left" viewBox="0 0 32 32">
<path stroke-width="2.6667" stroke-miterlimit="4" stroke-linecap="round" stroke-linejoin="round" d="M6.667 16h18.667"></path>
<path stroke-width="2.6667" stroke-miterlimit="4" stroke-linecap="round" stroke-linejoin="round" d="M16 25.334l9.333-9.333-9.333-9.333"></path>
</symbol>
<symbol id="icon-heart" viewBox="0 0 32 32">
<path fill="#ff6b08" style="fill: var(--color2, #ff6b08)" d="M16 30.583l-2.24-2.24c-8.32-7.36-13.76-12.32-13.76-18.4 0-4.96 3.84-8.8 8.8-8.8 2.72 0 5.44 1.28 7.2 3.36 1.76-2.080 4.48-3.36 7.2-3.36 4.96 0 8.8 3.84 8.8 8.8 0 6.080-5.44 11.040-13.76 18.4l-2.24 2.24z"></path>
</symbol>
<symbol id="icon-film" viewBox="0 0 32 32">
<path fill="none" stroke="#fff" stroke-width="2.6667" stroke-miterlimit="4" stroke-linecap="round" stroke-linejoin="round" style="stroke: var(--color1, #fff)" d="M26.427 2.667h-20.853c-1.605 0-2.907 1.301-2.907 2.907v20.853c0 1.605 1.301 2.907 2.907 2.907h20.853c1.605 0 2.907-1.301 2.907-2.907v-20.853c0-1.605-1.301-2.907-2.907-2.907z"></path>
<path fill="none" stroke="#fff" stroke-width="2.6667" stroke-miterlimit="4" stroke-linecap="round" stroke-linejoin="round" style="stroke: var(--color1, #fff)" d="M9.333 2.667v26.667"></path>
<path fill="none" stroke="#fff" stroke-width="2.6667" stroke-miterlimit="4" stroke-linecap="round" stroke-linejoin="round" style="stroke: var(--color1, #fff)" d="M22.667 2.667v26.667"></path>
<path fill="none" stroke="#fff" stroke-width="2.6667" stroke-miterlimit="4" stroke-linecap="round" stroke-linejoin="round" style="stroke: var(--color1, #fff)" d="M2.667 16h26.667"></path>
<path fill="none" stroke="#fff" stroke-width="2.6667" stroke-miterlimit="4" stroke-linecap="round" stroke-linejoin="round" style="stroke: var(--color1, #fff)" d="M2.667 9.333h6.667"></path>
<path fill="none" stroke="#fff" stroke-width="2.6667" stroke-miterlimit="4" stroke-linecap="round" stroke-linejoin="round" style="stroke: var(--color1, #fff)" d="M2.667 22.667h6.667"></path>
<path fill="none" stroke="#fff" stroke-width="2.6667" stroke-miterlimit="4" stroke-linecap="round" stroke-linejoin="round" style="stroke: var(--color1, #fff)" d="M22.667 22.667h6.667"></path>
<path fill="none" stroke="#fff" stroke-width="2.6667" stroke-miterlimit="4" stroke-linecap="round" stroke-linejoin="round" style="stroke: var(--color1, #fff)" d="M22.667 9.333h6.667"></path>
</symbol>
<svg aria-hidden="true" style="position: absolute; width: 0; height: 0; overflow: hidden;" version="1.1" xmlns="http://www.w3.org/2000/svg" xmlns:xlink="http://www.w3.org/1999/xlink">
<defs>

<symbol id="icon-youtube" viewBox="0 0 32 32">
<path fill="#ff3d00" style="fill: var(--color1, #ff3d00)" d="M28.8 22.6c-0.267 1.4-1.4 2.467-2.8 2.667-2.2 0.333-5.867 0.733-10 0.733-4.067 0-7.733-0.4-10-0.733-1.4-0.2-2.533-1.267-2.8-2.667-0.267-1.533-0.533-3.8-0.533-6.6s0.267-5.067 0.533-6.6c0.267-1.4 1.4-2.467 2.8-2.667 2.2-0.333 5.867-0.733 10-0.733s7.733 0.4 10 0.733c1.4 0.2 2.533 1.267 2.8 2.667 0.267 1.533 0.6 3.8 0.6 6.6-0.067 2.8-0.333 5.067-0.6 6.6z"></path>
<path fill="#fff" style="fill: var(--color2, #fff)" d="M13.333 20.667v-9.333l8 4.667z"></path>
</symbol>
<symbol id="icon-youtube1" viewBox="0 0 32 32">
<path d="M16 26.5c-3.179 0-6.358-0.098-9.649-0.292-2.48-0.146-4.481-2.121-4.654-4.593-0.26-3.726-0.26-7.505-0-11.23 0.174-2.473 2.175-4.447 4.654-4.594 6.584-0.389 12.716-0.389 19.299 0 2.48 0.146 4.48 2.121 4.654 4.593 0.261 3.726 0.261 7.504 0 11.23-0.174 2.473-2.174 4.447-4.654 4.594v0c-3.291 0.195-6.471 0.292-9.649 0.292zM25.591 25.21v0c1.98-0.117 3.576-1.693 3.715-3.666 0.258-3.679 0.258-7.41-0-11.091-0.138-1.972-1.735-3.548-3.715-3.665-6.544-0.386-12.637-0.386-19.181 0-1.979 0.117-3.576 1.693-3.716 3.666-0.257 3.679-0.257 7.41 0.001 11.090 0.138 1.972 1.736 3.548 3.715 3.665 6.543 0.387 12.637 0.387 19.181 0z"></path>
<path d="M12.5 19.92v-7.84l6.72 3.92z"></path>
<path d="M12 20.791v-9.581l8.212 4.79-8.213 4.791zM13 12.95v6.098l5.228-3.049-5.228-3.050z"></path>
</symbol>
<symbol id="icon-youtube-logo" viewBox="0 0 32 32">
<path fill="#455a64" style="fill: var(--color3, #455a64)" d="M9.693 4h1.417l0.913 3.664h0.089l0.872-3.662h1.431l-1.639 5.357v3.974h-1.408v-3.802l-1.675-5.531zM14.35 7.949c0-0.523 0.169-0.941 0.506-1.249 0.336-0.311 0.788-0.467 1.357-0.467 0.519 0 0.942 0.163 1.272 0.491 0.33 0.325 0.495 0.747 0.495 1.263v3.49c0 0.577-0.161 1.032-0.485 1.363-0.324 0.329-0.768 0.494-1.338 0.494-0.549 0-0.985-0.173-1.316-0.511-0.329-0.339-0.492-0.796-0.492-1.37v-3.504h0.001zM15.637 11.579c0 0.183 0.044 0.329 0.137 0.431 0.088 0.1 0.215 0.151 0.381 0.151 0.17 0 0.303-0.051 0.403-0.156 0.099-0.101 0.151-0.244 0.151-0.425v-3.681c0-0.147-0.053-0.266-0.154-0.357-0.101-0.090-0.235-0.137-0.399-0.137-0.153 0-0.278 0.047-0.374 0.137-0.095 0.091-0.143 0.211-0.143 0.357v3.681zM22.612 6.403v6.93h-1.25v-0.844c-0.231 0.276-0.47 0.485-0.721 0.627-0.248 0.143-0.49 0.217-0.724 0.217-0.29 0-0.507-0.099-0.654-0.301-0.147-0.2-0.219-0.501-0.219-0.905v-5.724h1.249v5.257c0 0.157 0.027 0.273 0.080 0.346 0.050 0.069 0.138 0.108 0.253 0.108 0.094 0 0.21-0.047 0.348-0.143 0.142-0.094 0.271-0.216 0.387-0.363v-5.205h1.25z"></path>
<path fill="#fff" style="fill: var(--color2, #fff)" d="M25.866 17.626c0-1.561-1.293-2.827-2.886-2.827-2.275-0.095-4.603-0.135-6.98-0.132-2.375-0.003-4.704 0.037-6.98 0.132-1.591 0-2.885 1.265-2.885 2.827-0.095 1.235-0.139 2.471-0.135 3.708-0.003 1.235 0.040 2.471 0.136 3.707 0 1.563 1.292 2.829 2.884 2.829 2.276 0.093 4.605 0.133 6.98 0.13 2.376 0.005 4.705-0.037 6.98-0.13 1.593 0 2.886-1.265 2.886-2.829 0.095-1.236 0.139-2.472 0.134-3.707 0.005-1.237-0.039-2.473-0.134-3.708z"></path>
<path fill="#f44336" style="fill: var(--color4, #f44336)" d="M22.567 20.231c-0.146 0-0.245 0.039-0.305 0.12-0.043 0.061-0.097 0.199-0.097 0.501v0.516h0.795v-0.516c0-0.297-0.055-0.437-0.101-0.505-0.057-0.079-0.153-0.117-0.293-0.117zM17.91 20.257c-0.057 0.028-0.113 0.070-0.172 0.129v3.917c0.073 0.074 0.145 0.127 0.211 0.161 0.074 0.037 0.149 0.053 0.231 0.053 0.154 0 0.202-0.061 0.217-0.082 0.038-0.047 0.079-0.146 0.079-0.36v-3.337c0-0.185-0.035-0.329-0.101-0.417-0.089-0.119-0.265-0.165-0.465-0.065z"></path>
<path fill="#f44336" style="fill: var(--color4, #f44336)" d="M25.866 17.626c0-1.561-1.293-2.827-2.886-2.827-2.275-0.095-4.603-0.135-6.98-0.132-2.375-0.003-4.704 0.037-6.98 0.132-1.591 0-2.885 1.265-2.885 2.827-0.095 1.235-0.139 2.471-0.135 3.708-0.003 1.235 0.040 2.471 0.136 3.707 0 1.563 1.292 2.829 2.884 2.829 2.276 0.093 4.605 0.133 6.98 0.13 2.376 0.005 4.705-0.037 6.98-0.13 1.593 0 2.886-1.265 2.886-2.829 0.095-1.236 0.139-2.472 0.134-3.707 0.005-1.237-0.039-2.473-0.134-3.708zM10.467 25.588c0 0.074-0.061 0.136-0.137 0.136h-1.366c-0.076 0-0.137-0.062-0.137-0.136v-7.353h-1.276c-0.075 0-0.137-0.061-0.137-0.135v-1.269c0-0.075 0.061-0.136 0.137-0.136h4.194c0.076 0 0.137 0.061 0.137 0.136v1.269c0 0.074-0.061 0.135-0.137 0.135h-1.277v7.353zM15.33 25.588c0 0.074-0.061 0.136-0.137 0.136h-1.215c-0.076 0-0.137-0.062-0.137-0.136v-0.367c-0.162 0.155-0.324 0.279-0.492 0.373-0.265 0.151-0.517 0.224-0.773 0.224-0.325 0-0.576-0.117-0.745-0.345-0.159-0.216-0.241-0.535-0.241-0.947v-5.4c0-0.075 0.061-0.136 0.138-0.136h1.214c0.076 0 0.137 0.061 0.137 0.136v4.952c0 0.163 0.029 0.229 0.048 0.255 0.009 0.011 0.033 0.045 0.137 0.045 0.035 0 0.115-0.015 0.259-0.113 0.117-0.077 0.223-0.173 0.315-0.283v-4.855c0-0.075 0.061-0.136 0.138-0.136h1.214c0.076 0 0.137 0.061 0.137 0.136v6.461h0.002zM20 24.249c0 0.491-0.106 0.873-0.315 1.139-0.217 0.279-0.531 0.417-0.932 0.417-0.255 0-0.489-0.051-0.697-0.155-0.111-0.055-0.218-0.127-0.319-0.217v0.155c0 0.076-0.062 0.136-0.137 0.136h-1.225c-0.076 0-0.138-0.060-0.138-0.136v-8.76c0-0.075 0.061-0.135 0.138-0.135h1.225c0.075 0 0.137 0.061 0.137 0.135v2.478c0.1-0.091 0.207-0.167 0.316-0.229 0.206-0.113 0.417-0.171 0.627-0.171 0.427 0 0.762 0.159 0.989 0.471 0.219 0.3 0.33 0.734 0.33 1.289l0.001 3.583zM24.486 22.51c0 0.075-0.062 0.137-0.138 0.137h-2.182v1.081c0 0.395 0.055 0.563 0.099 0.634 0.035 0.059 0.101 0.133 0.292 0.133 0.153 0 0.259-0.037 0.313-0.109 0.025-0.039 0.093-0.187 0.093-0.659v-0.45c0-0.076 0.062-0.136 0.138-0.136h1.248c0.076 0 0.137 0.060 0.137 0.136v0.486c0 0.696-0.166 1.229-0.491 1.589-0.327 0.362-0.82 0.547-1.465 0.547-0.581 0-1.049-0.197-1.386-0.581-0.333-0.381-0.503-0.903-0.503-1.555v-2.901c0-0.595 0.185-1.087 0.553-1.464 0.367-0.379 0.849-0.571 1.429-0.571 0.593 0 1.058 0.181 1.381 0.535 0.32 0.351 0.483 0.856 0.483 1.501v1.649h0.001z"></path>
</symbol>
<symbol id="icon-youtube-logo1" viewBox="0 0 32 32">
<path d="M9.6 3.2l1.28 3.84 1.28-3.84h1.28l-1.92 5.76v3.84h-1.28v-3.84l-1.92-5.76zM15.36 5.76c-0.682 0-1.018 0.107-1.435 0.45-0.4 0.338-0.51 0.598-0.485 1.47v3.2c0 0.637 0.105 1.058 0.49 1.43 0.4 0.373 0.777 0.49 1.43 0.49 0.683 0 1.055-0.117 1.44-0.49 0.4-0.357 0.48-0.793 0.48-1.43v-3.2c0-0.565-0.1-1.1-0.488-1.458-0.4-0.367-0.813-0.463-1.433-0.463zM19.84 5.76v5.12c0 0.613 0.508 0.64 0.64 0.64 0.117 0 0.633-0.203 0.64-0.64v-5.12h1.28v7.040h-1.28v-0.64c-0.282 0.313-0.628 0.64-1.28 0.64s-1.28-0.658-1.28-1.28v-5.76zM15.36 7.040c0.193 0 0.64-0.003 0.64 0.64v3.2c0 0.62-0.432 0.64-0.64 0.64-0.193 0-0.64-0.008-0.64-0.64v-3.2c0-0.522 0.277-0.64 0.64-0.64zM6.4 14.080c-2.3 0-3.84 1.525-3.84 3.84v6.080c0 2.315 1.54 4.16 3.84 4.16h19.2c2.3 0 3.84-1.525 3.84-3.84v-6.4c0-2.315-1.54-3.84-3.84-3.84zM7.68 16.64h3.84v1.28h-1.28v7.68h-1.28v-7.68h-1.28zM16.64 16.64h1.28v2.56c0.148-0.23 0.367-0.413 0.578-0.515 0.205-0.105 0.413-0.165 0.622-0.165 0.415 0 0.74 0.15 0.962 0.43 0.223 0.282 0.398 0.657 0.398 1.21v3.84c0 0.475-0.16 0.77-0.37 1.023-0.205 0.253-0.512 0.573-0.91 0.578-0.672 0.008-1.032-0.352-1.28-0.64v0.64h-1.28zM11.52 18.56h1.28v5.12c0 0.148 0.172 0.645 0.64 0.64 0.52-0.005 0.525-0.49 0.64-0.64v-5.12h1.28v7.040h-1.28v-0.64c-0.238 0.28-0.36 0.367-0.627 0.5-0.265 0.15-0.535 0.14-0.785 0.14-0.31 0-0.662-0.28-0.828-0.49-0.148-0.192-0.32-0.39-0.32-0.79zM23.168 18.56c0.608 0 1.035 0.13 1.357 0.47 0.33 0.34 0.435 0.738 0.435 1.378v1.992h-2.56v0.99c0 0.358 0.047 0.585 0.14 0.72 0.087 0.148 0.265 0.212 0.5 0.21 0.26-0.003 0.425-0.055 0.512-0.172 0.090-0.105 0.128-0.402 0.128-0.788v-0.32h1.28v0.38c0 0.698-0.055 1.218-0.4 1.558-0.325 0.358-0.832 0.523-1.497 0.523-0.608 0-1.082-0.18-1.422-0.55s-0.517-0.878-0.517-1.53v-3.012c0-0.58 0.203-1.010 0.575-1.393 0.3-0.308 0.863-0.455 1.47-0.455zM18.56 19.52c0.352 0 0.64 0.32 0.64 0.96v3.215c0 0.352-0.288 0.625-0.64 0.625s-0.635-0.135-0.64-0.32v-3.84c0.005-0.323 0.288-0.64 0.64-0.64zM23.040 19.84c0.352 0 0.64 0.247 0.64 0.64v0.64h-1.28v-0.64c0.005-0.343 0.288-0.64 0.64-0.64z"></path>
</symbol>
<symbol id="icon-github" viewBox="0 0 32 32">
<path d="M11.386 29.975c0.455-0.196 0.774-0.648 0.774-1.175v-3.456c0-0.126 0.010-0.257 0.026-0.39-0.009 0.003-0.017 0.004-0.026 0.006 0 0-1.92 0-2.304 0-0.96 0-1.792-0.384-2.176-1.152-0.448-0.832-0.64-2.24-1.792-3.008-0.192-0.128-0.064-0.32 0.32-0.32 0.384 0.064 1.216 0.576 1.728 1.28 0.576 0.704 1.152 1.28 2.176 1.28 1.592 0 2.445-0.080 2.958-0.355 0.598-0.889 1.425-1.565 2.29-1.565v-0.016c-3.628-0.116-5.945-1.322-7.024-3.184-2.346 0.027-4.388 0.259-5.553 0.452-0.037-0.209-0.069-0.42-0.097-0.632 1.15-0.189 3.1-0.414 5.341-0.457-0.072-0.177-0.134-0.358-0.186-0.543-2.247-0.114-4.186-0.025-5.24 0.062-0.013-0.212-0.030-0.424-0.033-0.639 1.055-0.086 2.942-0.173 5.132-0.071-0.051-0.32-0.083-0.647-0.083-0.988 0-1.088 0.384-2.24 1.088-3.2-0.32-1.088-0.768-3.392 0.128-4.224 1.728 0 2.944 0.832 3.52 1.344 1.087-0.449 2.303-0.705 3.647-0.705s2.56 0.256 3.584 0.704c0.576-0.512 1.792-1.344 3.52-1.344 0.96 0.896 0.448 3.2 0.128 4.224 0.704 0.96 1.088 2.048 1.024 3.2 0 0.31-0.029 0.609-0.070 0.902 2.239-0.11 4.177-0.022 5.251 0.065-0.001 0.216-0.021 0.426-0.033 0.639-1.069-0.088-3.056-0.179-5.35-0.057-0.057 0.215-0.126 0.424-0.208 0.627 2.269 0.029 4.266 0.249 5.471 0.441-0.028 0.212-0.060 0.423-0.097 0.632-1.224-0.196-3.309-0.425-5.683-0.436-1.066 1.842-3.341 3.043-6.897 3.183v0.020c1.664 0 3.2 2.496 3.2 4.224v3.456c0 0.527 0.319 0.979 0.774 1.175 5.863-1.94 10.106-7.47 10.106-13.975 0-8.116-6.603-14.72-14.72-14.72s-14.72 6.604-14.72 14.72c0 6.505 4.243 12.035 10.106 13.975z"></path>
</symbol>
<symbol id="icon-github1" viewBox="0 0 32 32">
<path d="M16 3.2c-7.069 0-12.8 5.731-12.8 12.8 0 5.998 4.13 11.017 9.698 12.405-0.060-0.173-0.098-0.373-0.098-0.622v-2.188c-0.519 0-1.39 0-1.609 0-0.876 0-1.654-0.377-2.032-1.076-0.419-0.778-0.492-1.967-1.531-2.694-0.308-0.242-0.074-0.518 0.282-0.481 0.656 0.186 1.2 0.636 1.712 1.303 0.51 0.669 0.75 0.82 1.702 0.82 0.462 0 1.153-0.027 1.804-0.129 0.35-0.889 0.955-1.707 1.694-2.093-4.262-0.438-6.297-2.559-6.297-5.438 0-1.239 0.528-2.438 1.425-3.449-0.294-1.003-0.665-3.047 0.113-3.826 1.918 0 3.077 1.244 3.356 1.58 0.956-0.327 2.005-0.513 3.108-0.513 1.105 0 2.159 0.186 3.117 0.515 0.275-0.334 1.436-1.582 3.358-1.582 0.781 0.78 0.406 2.833 0.109 3.834 0.892 1.008 1.417 2.204 1.417 3.441 0 2.877-2.031 4.996-6.287 5.437 1.171 0.611 2.026 2.329 2.026 3.622v2.916c0 0.111-0.025 0.191-0.037 0.286 4.988-1.748 8.571-6.484 8.571-12.069 0-7.069-5.731-12.8-12.8-12.8z"></path>
</symbol>
<symbol id="icon-github2" viewBox="0 0 32 32">
<path d="M12.504 28.003c-0.002-0.184-0.003-0.981-0.005-1.727l-0.002-0.775c-3.364 0.457-4.179-1.89-4.188-1.915-0.467-1.184-1.106-1.523-1.133-1.537l-0.062-0.036c-0.231-0.158-0.846-0.579-0.671-1.131 0.157-0.498 0.768-0.55 1.045-0.541 1.537 0.108 2.315 1.489 2.347 1.547 0.784 1.345 1.982 1.206 2.755 0.922 0.072-0.344 0.184-0.66 0.329-0.939-2.478-0.439-5.285-1.758-5.285-6.552 0-1.316 0.41-2.48 1.221-3.465-0.181-0.603-0.387-1.833 0.223-3.383l0.087-0.221 0.226-0.072c0.208-0.069 1.344-0.312 3.679 1.216 0.964-0.247 1.985-0.374 3.037-0.38 1.058 0.005 2.079 0.133 3.045 0.38 2.334-1.529 3.467-1.283 3.675-1.216l0.226 0.072 0.087 0.22c0.613 1.549 0.407 2.78 0.226 3.383 0.809 0.982 1.219 2.146 1.219 3.465 0 4.796-2.811 6.11-5.294 6.544 0.282 0.532 0.434 1.201 0.434 1.939 0 0.841-0.003 3.602-0.008 4.201l-1-0.007c0.004-0.598 0.008-3.354 0.008-4.195 0-1.221-0.471-1.761-0.675-1.937l-0.865-0.748 1.137-0.127c2.602-0.289 5.262-1.189 5.262-5.671 0-1.165-0.389-2.181-1.155-3.018l-0.215-0.235 0.121-0.293c0.083-0.2 0.447-1.221-0.021-2.646-0.379 0.023-1.284 0.201-2.792 1.223l-0.192 0.13-0.223-0.062c-0.931-0.259-1.969-0.398-3-0.403-1.026 0.005-2.062 0.144-2.992 0.403l-0.223 0.062-0.191-0.13c-1.51-1.022-2.417-1.202-2.797-1.225-0.467 1.425-0.103 2.446-0.020 2.646l0.121 0.293-0.214 0.235c-0.768 0.841-1.157 1.856-1.157 3.018 0 4.479 2.655 5.385 5.252 5.68l1.126 0.128-0.854 0.745c-0.186 0.163-0.515 0.556-0.627 1.363l-0.037 0.274-0.253 0.113c-0.661 0.296-2.92 1.081-4.274-1.242-0.008-0.012-0.272-0.473-0.751-0.779 0.323 0.32 0.716 0.837 1.034 1.643 0.033 0.095 0.678 1.811 3.64 1.169l0.603-0.131 0.006 1.989c0.002 0.744 0.003 1.538 0.005 1.722l-0.999 0.007z"></path>
<path d="M16 29c-7.168 0-13-5.831-13-13s5.832-13 13-13 13 5.832 13 13-5.831 13-13 13zM16 4c-6.617 0-12 5.383-12 12s5.383 12 12 12 12-5.383 12-12-5.383-12-12-12z"></path>
</symbol>
</defs>
</svg>
</defs>
</svg>
