<svg xmlns="http://www.w3.org/2000/svg" aria-hidden="true" style="position:absolute;width:0;height:0;overflow:hidden"><defs><symbol id="icon-search" viewBox="0 0 32 32"><path fill="none" stroke="#fff" stroke-linecap="round" stroke-linejoin="round" stroke-width="2.67" d="M14.67 25.33a10.67 10.67 0 1 0 0-21.33 10.67 10.67 0 0 0 0 21.33zM28 28l-5.8-5.8" style="stroke:var(--color1, #fff)"/></symbol><symbol id="icon-close" viewBox="0 0 32 32"><path stroke-width="2.13" d="m8.53 8.53 14.94 14.94M8.53 23.47 23.47 8.53"/></symbol><symbol id="icon-arrow_right" viewBox="0 0 32 32"><path stroke-linecap="round" stroke-linejoin="round" stroke-width="2.67" d="M25.33 16H6.67M16 25.33 6.67 16 16 6.67"/></symbol><symbol id="icon-arrow_left" viewBox="0 0 32 32"><path stroke-linecap="round" stroke-linejoin="round" stroke-width="2.67" d="M6.67 16h18.66M16 25.33 25.33 16 16 6.67"/></symbol><symbol id="icon-heart" viewBox="0 0 32 32"><path fill="#ff6b08" d="m16 30.58-2.24-2.24C5.44 20.98 0 16.02 0 9.94c0-4.96 3.84-8.8 8.8-8.8A9.62 9.62 0 0 1 16 4.5a9.62 9.62 0 0 1 7.2-3.36c4.96 0 8.8 3.84 8.8 8.8 0 6.08-5.44 11.04-13.76 18.4L16 30.58z" style="fill:var(--color2, #ff6b08)"/></symbol><symbol id="icon-film" viewBox="0 0 32 32"><path fill="none" stroke="#fff" stroke-linecap="round" stroke-linejoin="round" stroke-width="2.67" d="M26.43 2.67H5.57a2.9 2.9 0 0 0-2.9 2.9v20.86c0 1.6 1.3 2.9 2.9 2.9h20.86c1.6 0 2.9-1.3 2.9-2.9V5.57c0-1.6-1.3-2.9-2.9-2.9zM9.33 2.67v26.66M22.67 2.67v26.66M2.67 16h26.66M2.67 9.33h6.66M2.67 22.67h6.66M22.67 22.67h6.66M22.67 9.33h6.66" style="stroke:var(--color1, #fff)"/></symbol><symbol id="icon-youtube" viewBox="0 0 32 32"><path fill="#ff3d00" d="M28.8 22.6a3.33 3.33 0 0 1-2.8 2.67 69.45 69.45 0 0 1-20 0 3.33 3.33 0 0 1-2.8-2.67c-.27-1.53-.53-3.8-.53-6.6s.26-5.07.53-6.6A3.33 3.33 0 0 1 6 6.73a69.45 69.45 0 0 1 20 0c1.4.2 2.53 1.27 2.8 2.67.27 1.53.6 3.8.6 6.6-.07 2.8-.33 5.07-.6 6.6z" style="fill:var(--color1, #ff3d00)"/><path fill="#fff" d="M13.33 20.67v-9.34l8 4.67z" style="fill:var(--color2, #fff)"/></symbol><symbol id="icon-youtube1" viewBox="0 0 32 32"><path d="M16 26.5c-3.18 0-6.36-.1-9.65-.3a4.96 4.96 0 0 1-4.65-4.59c-.26-3.72-.26-7.5 0-11.23A4.97 4.97 0 0 1 6.35 5.8c6.59-.39 12.72-.39 19.3 0a4.97 4.97 0 0 1 4.65 4.6c.26 3.72.26 7.5 0 11.22a4.97 4.97 0 0 1-4.65 4.6c-3.3.2-6.47.29-9.65.29zm9.6-1.29a3.96 3.96 0 0 0 3.7-3.67c.26-3.67.26-7.4 0-11.09a3.96 3.96 0 0 0-3.7-3.66 159 159 0 0 0-19.19 0 3.97 3.97 0 0 0-3.72 3.66 79.7 79.7 0 0 0 0 11.1 3.96 3.96 0 0 0 3.72 3.66c6.54.39 12.64.39 19.18 0z"/><path d="M12.5 19.92v-7.84L19.22 16z"/><path d="M12 20.8V11.2L20.21 16 12 20.8zm1-7.85v6.1L18.23 16 13 12.95z"/></symbol><symbol id="icon-youtube-logo" viewBox="0 0 32 32"><path fill="#455a64" d="M9.7 4h1.41l.91 3.66h.1L12.97 4h1.43l-1.63 5.36v3.97h-1.41v-3.8L9.69 4zm4.65 3.95c0-.52.17-.94.5-1.25.34-.31.8-.47 1.36-.47a1.7 1.7 0 0 1 1.77 1.75v3.5c0 .57-.16 1.03-.48 1.36-.33.33-.77.5-1.34.5-.55 0-.99-.18-1.32-.52-.33-.34-.5-.8-.5-1.37v-3.5h.01zm1.29 3.63c0 .18.04.33.13.43.1.1.22.15.39.15s.3-.05.4-.16c.1-.1.15-.24.15-.42V7.9a.46.46 0 0 0-.16-.36.58.58 0 0 0-.4-.14.53.53 0 0 0-.37.14c-.1.1-.14.21-.14.36v3.68zM22.6 6.4v6.93h-1.25v-.84c-.23.27-.47.48-.72.63-.25.14-.49.21-.72.21-.3 0-.51-.1-.66-.3-.14-.2-.22-.5-.22-.9V6.4h1.25v5.26c0 .16.03.27.08.35.05.07.14.1.26.1.09 0 .2-.04.34-.14.15-.1.27-.22.4-.36V6.4h1.24z" style="fill:var(--color3, #455a64)"/><path fill="#fff" d="M25.87 17.63c0-1.56-1.3-2.83-2.89-2.83-2.27-.1-4.6-.14-6.98-.13-2.38 0-4.7.03-6.98.13a2.86 2.86 0 0 0-2.88 2.83 46.4 46.4 0 0 0 0 7.42c0 1.55 1.29 2.82 2.88 2.82 2.28.1 4.6.13 6.98.13 2.38 0 4.7-.04 6.98-.13 1.6 0 2.89-1.26 2.89-2.83.1-1.23.13-2.47.13-3.7 0-1.24-.04-2.48-.13-3.71z" style="fill:var(--color2, #fff)"/><path fill="#f44336" d="M22.57 20.23c-.15 0-.25.04-.3.12-.05.06-.1.2-.1.5v.52h.79v-.52c0-.3-.06-.43-.1-.5-.06-.08-.15-.12-.3-.12zm-4.66.03a.65.65 0 0 0-.17.13v3.91c.07.08.14.13.2.16a.5.5 0 0 0 .24.06c.15 0 .2-.06.22-.08.03-.05.08-.15.08-.36v-3.34a.7.7 0 0 0-.1-.42c-.1-.12-.27-.16-.47-.06z" style="fill:var(--color4, #f44336)"/><path fill="#f44336" d="M25.87 17.63c0-1.56-1.3-2.83-2.89-2.83-2.27-.1-4.6-.14-6.98-.13-2.38 0-4.7.03-6.98.13a2.86 2.86 0 0 0-2.88 2.83 46.4 46.4 0 0 0 0 7.42c0 1.55 1.29 2.82 2.88 2.82 2.28.1 4.6.13 6.98.13 2.38 0 4.7-.04 6.98-.13 1.6 0 2.89-1.26 2.89-2.83.1-1.23.13-2.47.13-3.7 0-1.24-.04-2.48-.13-3.71zm-15.4 7.96c0 .07-.06.13-.14.13H8.96a.14.14 0 0 1-.13-.13v-7.35H7.55a.14.14 0 0 1-.14-.14v-1.27c0-.07.06-.13.14-.13h4.2c.07 0 .13.06.13.13v1.27c0 .07-.06.13-.13.13h-1.28v7.36zm4.86 0c0 .07-.06.13-.14.13h-1.21a.14.14 0 0 1-.14-.13v-.37c-.16.16-.32.28-.5.37-.26.16-.5.23-.76.23a.87.87 0 0 1-.75-.35 1.59 1.59 0 0 1-.24-.94v-5.4c0-.08.06-.14.14-.14h1.21c.08 0 .14.06.14.14v4.95c0 .16.03.23.05.25 0 .01.03.05.13.05.04 0 .12-.02.26-.11.12-.08.23-.18.32-.29v-4.85c0-.08.06-.14.14-.14h1.21c.08 0 .14.06.14.14v6.46zM20 24.25c0 .49-.1.87-.32 1.14-.21.28-.53.41-.93.41a1.54 1.54 0 0 1-1.01-.37v.16c0 .07-.06.13-.14.13h-1.23a.14.14 0 0 1-.13-.13v-8.76c0-.08.06-.14.13-.14h1.23c.07 0 .14.06.14.14v2.48c.1-.1.2-.17.31-.23.2-.12.42-.17.63-.17.43 0 .76.16.99.47.22.3.33.73.33 1.29v3.58zm4.49-1.74c0 .07-.07.14-.14.14h-2.18v1.08c0 .4.05.56.1.63.03.06.1.14.29.14.15 0 .26-.04.31-.11.03-.04.1-.2.1-.66v-.45c0-.08.06-.14.13-.14h1.25c.08 0 .14.06.14.14v.48c0 .7-.17 1.23-.5 1.6-.32.35-.81.54-1.46.54-.58 0-1.05-.2-1.39-.58-.33-.38-.5-.9-.5-1.56v-2.9a1.91 1.91 0 0 1 1.98-2.04c.6 0 1.06.19 1.38.54.32.35.49.86.49 1.5v1.65z" style="fill:var(--color4, #f44336)"/></symbol><symbol id="icon-youtube-logo1" viewBox="0 0 32 32"><path d="m9.6 3.2 1.28 3.84 1.28-3.84h1.28l-1.92 5.76v3.84h-1.28V8.96L8.32 3.2zm5.76 2.56c-.68 0-1.02.1-1.44.45-.4.34-.5.6-.48 1.47v3.2c0 .64.1 1.06.49 1.43.4.37.78.49 1.43.49.68 0 1.05-.12 1.44-.49.4-.36.48-.8.48-1.43v-3.2c0-.57-.1-1.1-.49-1.46-.4-.37-.81-.46-1.43-.46zm4.48 0v5.12c0 .61.5.64.64.64.12 0 .63-.2.64-.64V5.76h1.28v7.04h-1.28v-.64c-.28.31-.63.64-1.28.64s-1.28-.66-1.28-1.28V5.76zm-4.48 1.28c.2 0 .64 0 .64.64v3.2c0 .62-.43.64-.64.64-.2 0-.64 0-.64-.64v-3.2c0-.52.28-.64.64-.64zM6.4 14.08c-2.3 0-3.84 1.52-3.84 3.84V24c0 2.31 1.54 4.16 3.84 4.16h19.2c2.3 0 3.84-1.52 3.84-3.84v-6.4c0-2.31-1.54-3.84-3.84-3.84zm1.28 2.56h3.84v1.28h-1.28v7.68H8.96v-7.68H7.68zm8.96 0h1.28v2.56c.15-.23.37-.41.58-.52.2-.1.41-.16.62-.16.41 0 .74.15.96.43.23.28.4.66.4 1.21V24c0 .47-.16.77-.37 1.02-.2.26-.51.58-.91.58-.67 0-1.03-.35-1.28-.64v.64h-1.28zm-5.12 1.92h1.28v5.12c0 .15.17.65.64.64.52 0 .53-.49.64-.64v-5.12h1.28v7.04h-1.28v-.64c-.24.28-.36.37-.63.5-.26.15-.53.14-.78.14-.31 0-.66-.28-.83-.49-.15-.2-.32-.39-.32-.79zm11.65 0c.6 0 1.03.13 1.35.47.33.34.44.74.44 1.38v1.99H22.4v.99c0 .36.05.58.14.72.09.15.27.21.5.21.26 0 .42-.06.51-.17.1-.1.13-.4.13-.79v-.32h1.28v.38c0 .7-.06 1.22-.4 1.56-.32.36-.83.52-1.5.52-.6 0-1.08-.18-1.42-.55s-.52-.88-.52-1.53v-3.01c0-.58.2-1.01.58-1.4.3-.3.86-.45 1.47-.45zm-4.61.96c.35 0 .64.32.64.96v3.21c0 .36-.29.63-.64.63s-.64-.14-.64-.32v-3.84c0-.32.29-.64.64-.64zm4.48.32c.35 0 .64.25.64.64v.64H22.4v-.64c0-.34.29-.64.64-.64z"/></symbol><symbol id="icon-github" viewBox="0 0 32 32"><path d="M11.39 29.98c.45-.2.77-.65.77-1.18v-3.46l.03-.39-.03.01h-2.3c-.96 0-1.8-.38-2.18-1.15-.45-.83-.64-2.24-1.8-3.01-.18-.13-.06-.32.33-.32a3.5 3.5 0 0 1 1.73 1.28c.57.7 1.15 1.28 2.17 1.28 1.6 0 2.45-.08 2.96-.35.6-.9 1.43-1.57 2.29-1.57v-.02c-3.63-.11-5.95-1.32-7.02-3.18-2.35.03-4.4.26-5.56.45l-.1-.63a39.3 39.3 0 0 1 5.35-.46 5.1 5.1 0 0 1-.19-.54 41.36 41.36 0 0 0-5.24.06c-.01-.21-.03-.42-.03-.64 1.05-.08 2.94-.17 5.13-.07a5.51 5.51 0 0 1 1-4.19c-.32-1.08-.76-3.39.13-4.22 1.73 0 2.95.83 3.52 1.34 1.09-.44 2.3-.7 3.65-.7s2.56.26 3.58.7a5.33 5.33 0 0 1 3.52-1.34c.96.9.45 3.2.13 4.22.7.96 1.09 2.05 1.03 3.2 0 .31-.03.61-.07.9 2.23-.1 4.17-.02 5.25.07 0 .22-.02.43-.04.64a41.57 41.57 0 0 0-5.35-.06 5.3 5.3 0 0 1-.2.63c2.27.03 4.26.25 5.47.44l-.1.63c-1.22-.2-3.3-.42-5.68-.43-1.07 1.84-3.34 3.04-6.9 3.18v.02c1.66 0 3.2 2.5 3.2 4.22v3.46c0 .53.32.98.77 1.17A14.74 14.74 0 0 0 30.72 16c0-8.12-6.6-14.72-14.72-14.72S1.28 7.88 1.28 16c0 6.5 4.24 12.03 10.1 13.97z"/></symbol><symbol id="icon-github1" viewBox="0 0 32 32"><path d="M16 3.2a12.8 12.8 0 0 0-3.1 25.2c-.06-.17-.1-.37-.1-.62V25.6h-1.6c-.89 0-1.66-.37-2.04-1.07-.42-.78-.5-1.97-1.53-2.7-.31-.24-.08-.51.28-.48.66.19 1.2.64 1.71 1.3.51.68.75.83 1.7.83.47 0 1.16-.03 1.8-.13.36-.9.96-1.7 1.7-2.1-4.26-.43-6.3-2.55-6.3-5.43 0-1.24.53-2.44 1.43-3.45-.3-1-.67-3.05.11-3.83a4.46 4.46 0 0 1 3.36 1.58 9.6 9.6 0 0 1 6.22 0A4.45 4.45 0 0 1 23 8.53c.78.78.4 2.84.11 3.84.9 1 1.42 2.2 1.42 3.44 0 2.87-2.03 5-6.29 5.43 1.17.62 2.03 2.33 2.03 3.63v2.91c0 .11-.03.2-.04.29A12.8 12.8 0 0 0 16 3.2z"/></symbol><symbol id="icon-github2" viewBox="0 0 32 32"><path d="M12.5 28v-2.5c-3.37.46-4.18-1.89-4.2-1.91-.46-1.19-1.1-1.53-1.12-1.54L7.1 22c-.23-.15-.84-.58-.67-1.13.16-.5.77-.55 1.05-.54 1.53.1 2.31 1.49 2.34 1.55.79 1.34 1.99 1.2 2.76.92.07-.34.18-.66.33-.94-2.48-.44-5.29-1.76-5.29-6.55a5.3 5.3 0 0 1 1.22-3.47c-.18-.6-.38-1.83.23-3.38l.08-.22.23-.07c.2-.07 1.34-.31 3.68 1.21a12.53 12.53 0 0 1 6.08 0c2.34-1.52 3.47-1.28 3.68-1.21l.22.07.09.22c.61 1.55.4 2.78.23 3.38a5.3 5.3 0 0 1 1.21 3.47c0 4.8-2.8 6.1-5.29 6.54.28.53.44 1.2.44 1.94l-.01 4.2h-1v-4.2c0-1.22-.47-1.76-.67-1.94l-.86-.74 1.13-.13c2.6-.3 5.26-1.2 5.26-5.67 0-1.17-.38-2.18-1.15-3.02l-.22-.24.13-.29c.08-.2.44-1.22-.03-2.64-.37.02-1.28.2-2.79 1.22l-.19.13-.22-.06a11.57 11.57 0 0 0-6 0l-.22.06-.19-.13c-1.5-1.02-2.42-1.2-2.8-1.23a3.92 3.92 0 0 0-.02 2.65l.12.3-.2.23a4.34 4.34 0 0 0-1.17 3.02c0 4.47 2.66 5.38 5.26 5.68l1.12.12-.85.75c-.19.16-.52.55-.63 1.36l-.04.28-.25.1c-.66.3-2.92 1.09-4.27-1.23-.01-.02-.28-.48-.75-.78.32.32.71.83 1.03 1.64.03.1.68 1.81 3.64 1.17l.6-.13v1.99l.01 1.72h-1z"/><path d="M16 29C8.83 29 3 23.17 3 16S8.83 3 16 3s13 5.83 13 13-5.83 13-13 13zm0-25a12.01 12.01 0 1 0 12 12c0-6.62-5.38-12-12-12z"/></symbol><symbol id="icon-moon" viewBox="0 0 32 32"><path fill="#f0eedb" d="M5.68 3.78C12.28-2 22.24-.97 28 5.62s5.25 16.4-1.34 22.16-16.75 5.3-22.52-1.3S-.92 9.54 5.68 3.78z" style="fill:var(--color1, #f0eedb)"/><path fill="#ebe9d2" d="M6.73 5.58C12.98.12 22.28.95 27.6 7.02s4.7 15.22-1.54 20.68c-6.24 5.46-15.73 5.14-21.04-.94S.49 11.04 6.73 5.58z" style="fill:var(--color2, #ebe9d2)"/><path fill="#d4d5b1" d="M15.25 8.85c-1.12 2.33-3.94 3.2-6.27 2.09S5.66 7.1 6.78 4.77C7.9 2.45 10.7 1.4 13.03 2.52s3.34 4 2.22 6.33z" style="fill:var(--color3, #d4d5b1)"/><path fill="#040000" d="M8 6.1A4.72 4.72 0 0 1 15 4.3a4.67 4.67 0 0 0-1.96-1.77 4.72 4.72 0 0 0-6.25 2.25 4.57 4.57 0 0 0 1.44 5.7A4.55 4.55 0 0 1 8 6.12z" opacity=".06" style="fill:var(--color4, #040000)"/><path fill="#d4d5b1" d="M13.57 13.65c-.07-.35.17-.7.53-.77s.7.15.77.5-.15.72-.5.8a.68.68 0 0 1-.8-.53z" style="fill:var(--color3, #d4d5b1)"/><path fill="#fff" d="M22.7 6.06c-.08-.35.17-.7.52-.77s.7.15.78.5c.07.37-.15.72-.51.8s-.72-.17-.8-.53z" opacity=".5" style="fill:var(--color5, #fff)"/><path fill="#d4d5b1" d="M17.67 24.9c.54-.47 1.36-.39 1.84.16s.43 1.35-.11 1.82-1.38.44-1.85-.1c-.48-.55-.42-1.4.12-1.87z" style="fill:var(--color3, #d4d5b1)"/><path fill="#fff" d="M3.65 13.82c-.08-.36.17-.7.52-.78s.7.15.78.51-.15.72-.51.79a.68.68 0 0 1-.8-.52z" opacity=".5" style="fill:var(--color5, #fff)"/><path fill="#d4d5b1" d="M29.31 17.61c-.23 2.3-2.33 3.88-4.62 3.65s-3.95-2.2-3.72-4.5c.24-2.29 2.27-4.02 4.56-3.78s4.01 2.34 3.78 4.63zM10.83 20.7c.91 1.59.3 3.58-1.28 4.5s-3.57.41-4.48-1.17c-.92-1.58-.41-3.64 1.17-4.56s3.67-.35 4.59 1.23z" style="fill:var(--color3, #d4d5b1)"/><path fill="#040000" d="M7.05 20.28a3.4 3.4 0 0 1 3.62.17 3.4 3.4 0 0 0-4.43-.98 3.34 3.34 0 0 0-.2 5.62 3.34 3.34 0 0 1 1.01-4.8zM21.86 17.64a4.2 4.2 0 0 1 4.55-3.79c.77.08 1.47.37 2.05.8a4.22 4.22 0 0 0-2.93-1.67 4.2 4.2 0 0 0-4.56 3.79 4.05 4.05 0 0 0 1.66 3.71 4.06 4.06 0 0 1-.77-2.84z" opacity=".06" style="fill:var(--color4, #040000)"/><path fill="#040000" d="M15.93 23.86c-6.59 0-12.4-3.25-15.92-8.23a15.68 15.68 0 0 0 9.62 14.8c8.05 3.47 17.48.1 20.95-7.95a15.75 15.75 0 0 0 1.26-6.84 19.46 19.46 0 0 1-15.91 8.22z" opacity=".1" style="fill:var(--color4, #040000)"/></symbol><symbol id="icon-moon1" viewBox="0 0 32 32"><path d="M9.86 6.42c.86 0 1.57.64 1.68 1.47A2.14 2.14 0 0 0 9.4 5.5a2.15 2.15 0 1 0 .24 4.29 1.69 1.69 0 0 1 .22-3.36z"/><path d="M16 .1C7.16.1 0 7.22 0 16s7.16 15.9 16 15.9S32 24.78 32 16 24.84.1 16 .1zM5.67 14.4a2.16 2.16 0 1 0 0 4.3l.2-.01a15.25 15.25 0 0 0 .91 8.75A14.61 14.61 0 0 1 1.24 16C1.24 7.92 7.86 1.34 16 1.34c5.13 0 9.82 2.62 12.51 6.9a15.33 15.33 0 0 0-6.6-1.94V6.2a2.57 2.57 0 1 0-5.06.65 15.43 15.43 0 0 0-9.74 8.1 2.15 2.15 0 0 0-1.44-.55zm1.19 1.1c-.44 1-.78 2.07-.99 3.17a1.69 1.69 0 1 1 .99-3.18zm15-9.2a15.4 15.4 0 0 0-3.98.29 2.01 2.01 0 0 1 3.98-.29zM12.33 26a2.57 2.57 0 0 1-2.55-2.86 2.01 2.01 0 1 0 2.26-2.25l.3-.02a2.57 2.57 0 1 1 0 5.13zm4.97-8.49a2.57 2.57 0 0 1-2.55-2.87 2.01 2.01 0 1 0 2.26-2.24l.3-.02a2.57 2.57 0 1 1 0 5.13zm6 9.74a2.57 2.57 0 0 1-2.54-2.87A2.01 2.01 0 1 0 23 22.13l.3-.01a2.57 2.57 0 1 1 0 5.13zm3.06-10.92a2.57 2.57 0 0 1-2.55-2.87 2.01 2.01 0 1 0 2.26-2.25l.3-.01a2.57 2.57 0 1 1 0 5.13z"/></symbol><symbol id="icon-moon2" viewBox="0 0 32 32"><path d="M27.82 20.42c.07-.16-.09-.32-.25-.26a12.48 12.48 0 0 1-13.02-2.71 12.46 12.46 0 0 1-2.74-12.96c.07-.19-.11-.37-.29-.29l-.04.02A12.8 12.8 0 0 0 5.52 9.6a12.44 12.44 0 0 0 17.9 16.27 12.83 12.83 0 0 0 4.4-5.45z"/></symbol><symbol id="icon-sun" viewBox="0 0 32 32"><path fill="#394240" d="M16 7a9 9 0 1 0 0 18 9 9 0 0 0 0-18zm0 17a8 8 0 1 1 0-16 8 8 0 0 1 0 16zM31.5 15.5h-5a.5.5 0 1 0 0 1h5a.5.5 0 0 0 0-1zM5.73 18.23l-1.93.52a.5.5 0 1 0 .26.97l1.93-.52a.5.5 0 0 0-.26-.97zM24.66 11a.5.5 0 0 0 .68.18l4.33-2.5a.5.5 0 1 0-.5-.86l-4.33 2.5a.5.5 0 0 0-.18.68zM8.93 23.07a.5.5 0 0 0-.7 0L6.8 24.5a.5.5 0 1 0 .7.7l1.42-1.41a.5.5 0 0 0 0-.7zM21 7.34a.5.5 0 0 0 .68-.18l2.5-4.33a.5.5 0 1 0-.86-.5l-2.5 4.33a.5.5 0 0 0 .18.68zM13.41 25.66a.5.5 0 0 0-.61.35l-.52 1.93a.5.5 0 0 0 .36.62.5.5 0 0 0 .6-.36l.52-1.93a.5.5 0 0 0-.35-.61zM16 6a.5.5 0 0 0 .5-.5v-5a.5.5 0 1 0-1 0v5c0 .28.22.5.5.5zM19.2 26.01a.5.5 0 1 0-.97.26l.52 1.93c.07.27.35.43.61.36s.43-.35.36-.62l-.52-1.93zM10.32 7.16a.5.5 0 0 0 .86-.5l-2.5-4.34a.5.5 0 0 0-.86.5l2.5 4.33zM23.78 23.07a.5.5 0 0 0-.7.7l1.4 1.42c.2.2.52.2.71 0s.2-.51 0-.7l-1.41-1.42z" style="fill:var(--color6, #394240)"/><path fill="#394240" d="m2.33 8.68 4.33 2.5a.5.5 0 0 0 .5-.86l-4.33-2.5a.5.5 0 1 0-.5.86zM26.01 19.2l1.93.52a.5.5 0 0 0 .26-.97l-1.93-.52a.5.5 0 1 0-.26.97zM6 16a.5.5 0 0 0-.5-.5h-5a.5.5 0 1 0 0 1h5A.5.5 0 0 0 6 16zM26.27 13.76l1.93-.51a.5.5 0 0 0-.25-.97L26 12.8a.5.5 0 1 0 .26.96z" style="fill:var(--color6, #394240)"/><path fill="#f9ebb2" d="M24 16a8 8 0 1 1-16 0 8 8 0 0 1 16 0z" style="fill:var(--color7, #f9ebb2)"/><path fill="#394240" d="M7.34 21a.5.5 0 0 0-.68-.18l-4.33 2.5a.5.5 0 1 0 .5.86l4.33-2.5a.5.5 0 0 0 .18-.68zM23.07 8.93c.2.2.51.2.7 0L25.2 7.5a.5.5 0 0 0 0-.7.5.5 0 0 0-.7 0l-1.42 1.41a.5.5 0 0 0 0 .7zM11 24.66a.5.5 0 0 0-.68.18l-2.5 4.33a.5.5 0 1 0 .86.5l2.5-4.33a.5.5 0 0 0-.18-.68zM18.59 6.34a.5.5 0 0 0 .61-.35l.52-1.94a.5.5 0 0 0-.36-.6.5.5 0 0 0-.6.35l-.52 1.93a.5.5 0 0 0 .35.61zM16 26a.5.5 0 0 0-.5.5v5a.5.5 0 1 0 1 0v-5a.5.5 0 0 0-.5-.5zM12.8 5.99a.5.5 0 0 0 .97-.26l-.52-1.93a.5.5 0 1 0-.97.26l.52 1.93zM21.68 24.84a.5.5 0 0 0-.86.5l2.5 4.33c.14.24.44.33.68.19s.32-.45.18-.69l-2.5-4.33zM8.22 8.93c.2.2.51.2.7 0a.5.5 0 0 0 0-.7L7.53 6.8a.5.5 0 0 0-.71.7l1.41 1.42zM29.67 23.32l-4.33-2.5a.5.5 0 1 0-.5.86l4.34 2.5a.5.5 0 0 0 .68-.18.5.5 0 0 0-.19-.68zM5.99 12.8l-1.94-.52a.5.5 0 0 0-.26.97l1.94.51a.5.5 0 1 0 .26-.96zM16 10a.5.5 0 1 0 0 1 5 5 0 0 1 5 5 .5.5 0 0 0 1 0 6 6 0 0 0-6-6z" style="fill:var(--color6, #394240)"/></symbol><symbol id="icon-sun1" viewBox="0 0 32 32"><path d="m15.94 2.54-.08.02c-.3.07-.5.34-.5.64v3.84c0 .23.12.45.32.56.2.12.44.12.64 0 .2-.11.32-.33.32-.56V3.2a.64.64 0 0 0-.7-.66zM6.82 6.3a.64.64 0 0 0-.5.45c-.07.23 0 .48.18.65l2.72 2.72a.64.64 0 1 0 .9-.9L7.4 6.5a.64.64 0 0 0-.52-.2h-.06zm18.16 0a.65.65 0 0 0-.38.2l-2.72 2.72a.64.64 0 1 0 .9.9L25.5 7.4a.64.64 0 0 0-.52-1.1zm-9.04 3.3a.47.47 0 0 0-.06.02.63.63 0 0 0-.12.02l-.02.02A6.38 6.38 0 0 0 9.6 16c0 3.52 2.88 6.4 6.4 6.4s6.4-2.88 6.4-6.4a6.38 6.38 0 0 0-6.1-6.34l-.06-.02a.64.64 0 0 0-.2-.04h-.1zm.02 1.28h.1a5.12 5.12 0 1 1-.1 0zM3.02 15.36a.65.65 0 0 0 .18 1.28h3.84c.23 0 .44-.12.56-.32a.65.65 0 0 0 0-.64.64.64 0 0 0-.56-.32H3.02zm21.76 0a.65.65 0 0 0 .18 1.28h3.84c.23 0 .45-.12.56-.32a.65.65 0 0 0 0-.64.64.64 0 0 0-.56-.32h-4.02zM9.6 21.68a.65.65 0 0 0-.38.2L6.5 24.6a.64.64 0 1 0 .9.9l2.72-2.72a.64.64 0 0 0-.46-1.1H9.6zm12.6 0a.64.64 0 0 0-.5.45c-.07.23 0 .48.18.65l2.72 2.72a.64.64 0 1 0 .9-.9l-2.72-2.72a.64.64 0 0 0-.46-.2h-.12zm-6.26 2.62a.67.67 0 0 0-.08.02c-.3.07-.5.34-.5.64v3.84c0 .23.12.45.32.56.2.12.44.12.64 0 .2-.11.32-.33.32-.56v-3.84a.63.63 0 0 0-.2-.49.64.64 0 0 0-.5-.17z"/></symbol><symbol id="icon-sun2" viewBox="0 0 32 32"><path fill="#fff" d="M7.33 7.33h17.34v17.34H7.33z" style="fill:var(--color8, #fff)"/><path fill="#fff" d="M4 16 16 4l12 12-12 12z" style="fill:var(--color8, #fff)"/><path fill="#fff" d="M8.67 16a7.33 7.33 0 1 0 14.66 0 7.33 7.33 0 0 0-14.66 0z" style="fill:var(--color9, #fff)"/></symbol><symbol id="icon-linkedin2" viewBox="0 0 32 32"><path fill="#0177b5" d="M26 2a4 4 0 0 1 4 4v20a4 4 0 0 1-4 4H6a4 4 0 0 1-4-4V6a4 4 0 0 1 4-4h20zm0-2H6a6.02 6.02 0 0 0-6 6v20a6.02 6.02 0 0 0 6 6h20a6.02 6.02 0 0 0 6-6V6a6.02 6.02 0 0 0-6-6z" style="fill:var(--color1, #0177b5)"/><path fill="#0177b5" d="M23 8H9a1 1 0 0 0-1 1v14a1 1 0 0 0 1 1h14a1 1 0 0 0 1-1V9a1 1 0 0 0-1-1zM13 21.5h-2.5V14H13zM11.75 13a1.5 1.5 0 1 1 1.5-1.5c0 .83-.67 1.5-1.5 1.5zm9.75 8.5H19v-5c0-.41-.56-.75-1.25-.75-1 0-1.25 1.33-1.25 1.75v4H14V14h2.5v1.75C16.5 14.5 17.62 14 19 14s2.5 1.12 2.5 2.5z" style="fill:var(--color1, #0177b5)"/></symbol><symbol id="icon-linkedin1" viewBox="0 0 32 32"><path d="M16 0a16 16 0 1 0 0 32 16 16 0 0 0 0-32zm-4.27 23.73H8.22V12.4h3.51v11.34zM9.96 10.9c-1.15 0-2.08-.94-2.08-2.1s.93-2.09 2.08-2.09 2.07.94 2.07 2.1c0 1.15-.92 2.09-2.07 2.09zM24.9 23.73h-3.5v-5.95c0-1.64-.62-2.55-1.91-2.55-1.4 0-2.14.95-2.14 2.55v5.95h-3.37V12.4h3.37v1.52s1.01-1.87 3.42-1.87c2.4 0 4.13 1.47 4.13 4.5v7.2z"/></symbol><symbol id="icon-linkedin" viewBox="0 0 32 32"><path fill="#0b86ca" d="M7.18 0h17.64A7.18 7.18 0 0 1 32 7.18v17.64A7.18 7.18 0 0 1 24.82 32H7.18A7.18 7.18 0 0 1 0 24.82V7.18A7.18 7.18 0 0 1 7.18 0z" style="fill:var(--color2, #0b86ca)"/><path fill="#fff" d="M8.87 13.3h3.32v10.73H8.87zm1.7-5.33a1.93 1.93 0 1 1-1.94 1.94V9.9c0-1.07.87-1.93 1.93-1.93zm3.75 5.33h3.2v1.46a3.5 3.5 0 0 1 3.17-1.72c3.32 0 4 2.21 4 5.1v5.9h-3.33v-5.2c0-1.24 0-2.85-1.73-2.85s-2 1.36-2 2.75v5.31h-3.32z" style="fill:var(--color3, #fff)"/></symbol><symbol id="icon-google" viewBox="0 0 32 32"><path fill="#ffc107" d="M29.07 13.39H28v-.06H16v5.34h7.54a8 8 0 1 1-2.23-8.64l3.77-3.77a13.33 13.33 0 1 0 4 7.13z" style="fill:var(--color1, #ffc107)"/><path fill="#ff3d00" d="M4.2 9.8 8.58 13a8 8 0 0 1 12.73-2.97l3.77-3.77A13.33 13.33 0 0 0 4.2 9.8z" style="fill:var(--color2, #ff3d00)"/><path fill="#4caf50" d="M16 29.33c3.44 0 6.57-1.31 8.94-3.46l-4.13-3.49A8 8 0 0 1 8.48 18.7l-4.35 3.35A13.32 13.32 0 0 0 16 29.33z" style="fill:var(--color3, #4caf50)"/><path fill="#1976d2" d="M29.07 13.39H28v-.06H16v5.34h7.54a8.03 8.03 0 0 1-2.73 3.71l4.13 3.5c-.3.26 4.4-3.21 4.4-9.88 0-.9-.1-1.77-.27-2.61z" style="fill:var(--color4, #1976d2)"/></symbol><symbol id="icon-up-arrow-orange" viewBox="0 0 32 32"><path fill="#eef5fd" d="M31 16a15 15 0 1 1-30 0 15 15 0 0 1 30 0z" style="fill:var(--color1, #eef5fd)"/><path fill="#d7e2f2" d="M31 16A15 15 0 0 0 16 1v30a15 15 0 0 0 15-15z" style="fill:var(--color2, #d7e2f2)"/><path fill="#ffc661" d="M11 17h10a1 1 0 0 0 .85-1.53l-5-8a1 1 0 0 0-1.7 0l-5 8A1 1 0 0 0 11 17zM11 19h10a1 1 0 0 1 1 1v4a1 1 0 0 1-1 1H11a1 1 0 0 1-1-1v-4a1 1 0 0 1 1-1z" style="fill:var(--color3, #ffc661)"/><path fill="#e49f4e" d="M21 17a1 1 0 0 0 .85-1.53l-5-8A1 1 0 0 0 16 7v10zm0 2h-5v6h5a1 1 0 0 0 1-1v-4a1 1 0 0 0-1-1z" style="fill:var(--color4, #e49f4e)"/></symbol><symbol id="icon-up-arrow-play" viewBox="0 0 32 32"><path fill="#1fa85b" d="M32 16a16 16 0 1 1-32 0 16 16 0 0 1 32 0z" style="fill:var(--color5, #1fa85b)"/><path fill="#fff" d="m22.59 18.74-5.64-4.56v-3.24h1.91c.35 0 .62-.4.42-.71L16.4 5.79a.4.4 0 0 0-.03-.05l-.04-.04a.45.45 0 0 0-.38-.18.45.45 0 0 0-.39.2l-.01.02-.02.03c-.96 1.5-1.92 2.98-2.89 4.46-.2.3.07.7.41.7h2v3.26l-5.63 4.55c-.77.63-.64 1.33-.64 2.26l.02 3.72c0 1.22 1.9 1.23 1.9 0l-.03-4.57 5.34-4.31 5.33 4.31-.02 4.57c0 1.22 1.9 1.23 1.9.01l.01-3.71c0-.94.13-1.66-.64-2.28z" style="fill:var(--color6, #fff)"/></symbol><symbol id="icon-arrow_circle" viewBox="0 0 32 32"><path d="M30 16c0-7.72-6.28-14-14-14a14.02 14.02 0 0 0-4.27 27.34 1 1 0 0 0 1.26-.65 1.02 1.02 0 0 0-.65-1.26A12.01 12.01 0 1 1 28 16c0 6.28-4.85 11.45-11 11.96V10.58c1.11.93 2.78 2.89 4.17 4.97.3.47.92.59 1.38.28.46-.3.59-.93.28-1.38C21.54 12.51 18.29 8 16 8s-5.54 4.51-6.83 6.45a.99.99 0 0 0 .28 1.38.98.98 0 0 0 1.38-.28A26.44 26.44 0 0 1 15 10.58V29a1 1 0 0 0 1 1 14.01 14.01 0 0 0 14-14z"/></symbol><symbol id="icon-two-arrows-orange-up" viewBox="0 0 32 32"><path fill="#fff" d="M4 2.67h24c.74 0 1.33.6 1.33 1.33v24c0 .74-.6 1.33-1.33 1.33H4c-.74 0-1.33-.6-1.33-1.33V4c0-.74.6-1.33 1.33-1.33z"/><path fill="#ff6b08" d="M21.33 17.33c-.36 0-.7-.15-.94-.39l-4.4-4.39-4.38 4.4a1.33 1.33 0 1 1-1.89-1.9l5.34-5.33a1.33 1.33 0 0 1 1.88 0l5.34 5.34a1.33 1.33 0 0 1-.95 2.27z" style="fill:var(--color8, #ff6b08)"/><path fill="#ff6b08" d="M21.33 22.67c-.36 0-.7-.15-.94-.4l-4.4-4.38-4.38 4.39a1.33 1.33 0 1 1-1.89-1.89l5.34-5.33a1.33 1.33 0 0 1 1.88 0l5.34 5.33a1.33 1.33 0 0 1-.95 2.28z" style="fill:var(--color8, #ff6b08)"/></symbol></defs></svg>