<svg aria-hidden="true" style="position: absolute; width: 0; height: 0; overflow: hidden;" version="1.1" xmlns="http://www.w3.org/2000/svg" xmlns:xlink="http://www.w3.org/1999/xlink">
<defs>
<symbol id="icon-search" viewBox="0 0 32 32">
<path fill="none" stroke="#fff" stroke-width="2.6667" stroke-miterlimit="4" stroke-linecap="round" stroke-linejoin="round" style="stroke: var(--color1, #fff)" d="M14.667 25.333c5.891 0 10.667-4.776 10.667-10.667s-4.776-10.667-10.667-10.667c-5.891 0-10.667 4.776-10.667 10.667s4.776 10.667 10.667 10.667z"></path>
<path fill="none" stroke="#fff" stroke-width="2.6667" stroke-miterlimit="4" stroke-linecap="round" stroke-linejoin="round" style="stroke: var(--color1, #fff)" d="M28 28.001l-5.8-5.8"></path>
</symbol>
<symbol id="icon-close" viewBox="0 0 32 32">
<path stroke-width="2.1333" stroke-miterlimit="4" stroke-linecap="butt" stroke-linejoin="miter" d="M8.533 8.533l14.933 14.933"></path>
<path stroke-width="2.1333" stroke-miterlimit="4" stroke-linecap="butt" stroke-linejoin="miter" d="M8.533 23.467l14.933-14.933"></path>
</symbol>
<symbol id="icon-arrow_right" viewBox="0 0 32 32">
<path stroke-width="2.6667" stroke-miterlimit="4" stroke-linecap="round" stroke-linejoin="round" d="M25.333 16h-18.667"></path>
<path stroke-width="2.6667" stroke-miterlimit="4" stroke-linecap="round" stroke-linejoin="round" d="M16 25.334l-9.333-9.333 9.333-9.333"></path>
</symbol>
<symbol id="icon-arrow_left" viewBox="0 0 32 32">
<path stroke-width="2.6667" stroke-miterlimit="4" stroke-linecap="round" stroke-linejoin="round" d="M6.667 16h18.667"></path>
<path stroke-width="2.6667" stroke-miterlimit="4" stroke-linecap="round" stroke-linejoin="round" d="M16 25.334l9.333-9.333-9.333-9.333"></path>
</symbol>
<symbol id="icon-heart" viewBox="0 0 32 32">
<path fill="#ff6b08" style="fill: var(--color2, #ff6b08)" d="M16 30.583l-2.24-2.24c-8.32-7.36-13.76-12.32-13.76-18.4 0-4.96 3.84-8.8 8.8-8.8 2.72 0 5.44 1.28 7.2 3.36 1.76-2.080 4.48-3.36 7.2-3.36 4.96 0 8.8 3.84 8.8 8.8 0 6.080-5.44 11.040-13.76 18.4l-2.24 2.24z"></path>
</symbol>
<symbol id="icon-film" viewBox="0 0 32 32">
<path fill="none" stroke="#fff" stroke-width="2.6667" stroke-miterlimit="4" stroke-linecap="round" stroke-linejoin="round" style="stroke: var(--color1, #fff)" d="M26.427 2.667h-20.853c-1.605 0-2.907 1.301-2.907 2.907v20.853c0 1.605 1.301 2.907 2.907 2.907h20.853c1.605 0 2.907-1.301 2.907-2.907v-20.853c0-1.605-1.301-2.907-2.907-2.907z"></path>
<path fill="none" stroke="#fff" stroke-width="2.6667" stroke-miterlimit="4" stroke-linecap="round" stroke-linejoin="round" style="stroke: var(--color1, #fff)" d="M9.333 2.667v26.667"></path>
<path fill="none" stroke="#fff" stroke-width="2.6667" stroke-miterlimit="4" stroke-linecap="round" stroke-linejoin="round" style="stroke: var(--color1, #fff)" d="M22.667 2.667v26.667"></path>
<path fill="none" stroke="#fff" stroke-width="2.6667" stroke-miterlimit="4" stroke-linecap="round" stroke-linejoin="round" style="stroke: var(--color1, #fff)" d="M2.667 16h26.667"></path>
<path fill="none" stroke="#fff" stroke-width="2.6667" stroke-miterlimit="4" stroke-linecap="round" stroke-linejoin="round" style="stroke: var(--color1, #fff)" d="M2.667 9.333h6.667"></path>
<path fill="none" stroke="#fff" stroke-width="2.6667" stroke-miterlimit="4" stroke-linecap="round" stroke-linejoin="round" style="stroke: var(--color1, #fff)" d="M2.667 22.667h6.667"></path>
<path fill="none" stroke="#fff" stroke-width="2.6667" stroke-miterlimit="4" stroke-linecap="round" stroke-linejoin="round" style="stroke: var(--color1, #fff)" d="M22.667 22.667h6.667"></path>
<path fill="none" stroke="#fff" stroke-width="2.6667" stroke-miterlimit="4" stroke-linecap="round" stroke-linejoin="round" style="stroke: var(--color1, #fff)" d="M22.667 9.333h6.667"></path>
</symbol>

<symbol id="icon-youtube" viewBox="0 0 32 32">
<path fill="#ff3d00" style="fill: var(--color1, #ff3d00)" d="M28.8 22.6c-0.267 1.4-1.4 2.467-2.8 2.667-2.2 0.333-5.867 0.733-10 0.733-4.067 0-7.733-0.4-10-0.733-1.4-0.2-2.533-1.267-2.8-2.667-0.267-1.533-0.533-3.8-0.533-6.6s0.267-5.067 0.533-6.6c0.267-1.4 1.4-2.467 2.8-2.667 2.2-0.333 5.867-0.733 10-0.733s7.733 0.4 10 0.733c1.4 0.2 2.533 1.267 2.8 2.667 0.267 1.533 0.6 3.8 0.6 6.6-0.067 2.8-0.333 5.067-0.6 6.6z"></path>
<path fill="#fff" style="fill: var(--color2, #fff)" d="M13.333 20.667v-9.333l8 4.667z"></path>
</symbol>
<symbol id="icon-youtube1" viewBox="0 0 32 32">
<path d="M16 26.5c-3.179 0-6.358-0.098-9.649-0.292-2.48-0.146-4.481-2.121-4.654-4.593-0.26-3.726-0.26-7.505-0-11.23 0.174-2.473 2.175-4.447 4.654-4.594 6.584-0.389 12.716-0.389 19.299 0 2.48 0.146 4.48 2.121 4.654 4.593 0.261 3.726 0.261 7.504 0 11.23-0.174 2.473-2.174 4.447-4.654 4.594v0c-3.291 0.195-6.471 0.292-9.649 0.292zM25.591 25.21v0c1.98-0.117 3.576-1.693 3.715-3.666 0.258-3.679 0.258-7.41-0-11.091-0.138-1.972-1.735-3.548-3.715-3.665-6.544-0.386-12.637-0.386-19.181 0-1.979 0.117-3.576 1.693-3.716 3.666-0.257 3.679-0.257 7.41 0.001 11.090 0.138 1.972 1.736 3.548 3.715 3.665 6.543 0.387 12.637 0.387 19.181 0z"></path>
<path d="M12.5 19.92v-7.84l6.72 3.92z"></path>
<path d="M12 20.791v-9.581l8.212 4.79-8.213 4.791zM13 12.95v6.098l5.228-3.049-5.228-3.050z"></path>
</symbol>
<symbol id="icon-youtube-logo" viewBox="0 0 32 32">
<path fill="#455a64" style="fill: var(--color3, #455a64)" d="M9.693 4h1.417l0.913 3.664h0.089l0.872-3.662h1.431l-1.639 5.357v3.974h-1.408v-3.802l-1.675-5.531zM14.35 7.949c0-0.523 0.169-0.941 0.506-1.249 0.336-0.311 0.788-0.467 1.357-0.467 0.519 0 0.942 0.163 1.272 0.491 0.33 0.325 0.495 0.747 0.495 1.263v3.49c0 0.577-0.161 1.032-0.485 1.363-0.324 0.329-0.768 0.494-1.338 0.494-0.549 0-0.985-0.173-1.316-0.511-0.329-0.339-0.492-0.796-0.492-1.37v-3.504h0.001zM15.637 11.579c0 0.183 0.044 0.329 0.137 0.431 0.088 0.1 0.215 0.151 0.381 0.151 0.17 0 0.303-0.051 0.403-0.156 0.099-0.101 0.151-0.244 0.151-0.425v-3.681c0-0.147-0.053-0.266-0.154-0.357-0.101-0.090-0.235-0.137-0.399-0.137-0.153 0-0.278 0.047-0.374 0.137-0.095 0.091-0.143 0.211-0.143 0.357v3.681zM22.612 6.403v6.93h-1.25v-0.844c-0.231 0.276-0.47 0.485-0.721 0.627-0.248 0.143-0.49 0.217-0.724 0.217-0.29 0-0.507-0.099-0.654-0.301-0.147-0.2-0.219-0.501-0.219-0.905v-5.724h1.249v5.257c0 0.157 0.027 0.273 0.080 0.346 0.050 0.069 0.138 0.108 0.253 0.108 0.094 0 0.21-0.047 0.348-0.143 0.142-0.094 0.271-0.216 0.387-0.363v-5.205h1.25z"></path>
<path fill="#fff" style="fill: var(--color2, #fff)" d="M25.866 17.626c0-1.561-1.293-2.827-2.886-2.827-2.275-0.095-4.603-0.135-6.98-0.132-2.375-0.003-4.704 0.037-6.98 0.132-1.591 0-2.885 1.265-2.885 2.827-0.095 1.235-0.139 2.471-0.135 3.708-0.003 1.235 0.040 2.471 0.136 3.707 0 1.563 1.292 2.829 2.884 2.829 2.276 0.093 4.605 0.133 6.98 0.13 2.376 0.005 4.705-0.037 6.98-0.13 1.593 0 2.886-1.265 2.886-2.829 0.095-1.236 0.139-2.472 0.134-3.707 0.005-1.237-0.039-2.473-0.134-3.708z"></path>
<path fill="#f44336" style="fill: var(--color4, #f44336)" d="M22.567 20.231c-0.146 0-0.245 0.039-0.305 0.12-0.043 0.061-0.097 0.199-0.097 0.501v0.516h0.795v-0.516c0-0.297-0.055-0.437-0.101-0.505-0.057-0.079-0.153-0.117-0.293-0.117zM17.91 20.257c-0.057 0.028-0.113 0.070-0.172 0.129v3.917c0.073 0.074 0.145 0.127 0.211 0.161 0.074 0.037 0.149 0.053 0.231 0.053 0.154 0 0.202-0.061 0.217-0.082 0.038-0.047 0.079-0.146 0.079-0.36v-3.337c0-0.185-0.035-0.329-0.101-0.417-0.089-0.119-0.265-0.165-0.465-0.065z"></path>
<path fill="#f44336" style="fill: var(--color4, #f44336)" d="M25.866 17.626c0-1.561-1.293-2.827-2.886-2.827-2.275-0.095-4.603-0.135-6.98-0.132-2.375-0.003-4.704 0.037-6.98 0.132-1.591 0-2.885 1.265-2.885 2.827-0.095 1.235-0.139 2.471-0.135 3.708-0.003 1.235 0.040 2.471 0.136 3.707 0 1.563 1.292 2.829 2.884 2.829 2.276 0.093 4.605 0.133 6.98 0.13 2.376 0.005 4.705-0.037 6.98-0.13 1.593 0 2.886-1.265 2.886-2.829 0.095-1.236 0.139-2.472 0.134-3.707 0.005-1.237-0.039-2.473-0.134-3.708zM10.467 25.588c0 0.074-0.061 0.136-0.137 0.136h-1.366c-0.076 0-0.137-0.062-0.137-0.136v-7.353h-1.276c-0.075 0-0.137-0.061-0.137-0.135v-1.269c0-0.075 0.061-0.136 0.137-0.136h4.194c0.076 0 0.137 0.061 0.137 0.136v1.269c0 0.074-0.061 0.135-0.137 0.135h-1.277v7.353zM15.33 25.588c0 0.074-0.061 0.136-0.137 0.136h-1.215c-0.076 0-0.137-0.062-0.137-0.136v-0.367c-0.162 0.155-0.324 0.279-0.492 0.373-0.265 0.151-0.517 0.224-0.773 0.224-0.325 0-0.576-0.117-0.745-0.345-0.159-0.216-0.241-0.535-0.241-0.947v-5.4c0-0.075 0.061-0.136 0.138-0.136h1.214c0.076 0 0.137 0.061 0.137 0.136v4.952c0 0.163 0.029 0.229 0.048 0.255 0.009 0.011 0.033 0.045 0.137 0.045 0.035 0 0.115-0.015 0.259-0.113 0.117-0.077 0.223-0.173 0.315-0.283v-4.855c0-0.075 0.061-0.136 0.138-0.136h1.214c0.076 0 0.137 0.061 0.137 0.136v6.461h0.002zM20 24.249c0 0.491-0.106 0.873-0.315 1.139-0.217 0.279-0.531 0.417-0.932 0.417-0.255 0-0.489-0.051-0.697-0.155-0.111-0.055-0.218-0.127-0.319-0.217v0.155c0 0.076-0.062 0.136-0.137 0.136h-1.225c-0.076 0-0.138-0.060-0.138-0.136v-8.76c0-0.075 0.061-0.135 0.138-0.135h1.225c0.075 0 0.137 0.061 0.137 0.135v2.478c0.1-0.091 0.207-0.167 0.316-0.229 0.206-0.113 0.417-0.171 0.627-0.171 0.427 0 0.762 0.159 0.989 0.471 0.219 0.3 0.33 0.734 0.33 1.289l0.001 3.583zM24.486 22.51c0 0.075-0.062 0.137-0.138 0.137h-2.182v1.081c0 0.395 0.055 0.563 0.099 0.634 0.035 0.059 0.101 0.133 0.292 0.133 0.153 0 0.259-0.037 0.313-0.109 0.025-0.039 0.093-0.187 0.093-0.659v-0.45c0-0.076 0.062-0.136 0.138-0.136h1.248c0.076 0 0.137 0.060 0.137 0.136v0.486c0 0.696-0.166 1.229-0.491 1.589-0.327 0.362-0.82 0.547-1.465 0.547-0.581 0-1.049-0.197-1.386-0.581-0.333-0.381-0.503-0.903-0.503-1.555v-2.901c0-0.595 0.185-1.087 0.553-1.464 0.367-0.379 0.849-0.571 1.429-0.571 0.593 0 1.058 0.181 1.381 0.535 0.32 0.351 0.483 0.856 0.483 1.501v1.649h0.001z"></path>
</symbol>
<symbol id="icon-youtube-logo1" viewBox="0 0 32 32">
<path d="M9.6 3.2l1.28 3.84 1.28-3.84h1.28l-1.92 5.76v3.84h-1.28v-3.84l-1.92-5.76zM15.36 5.76c-0.682 0-1.018 0.107-1.435 0.45-0.4 0.338-0.51 0.598-0.485 1.47v3.2c0 0.637 0.105 1.058 0.49 1.43 0.4 0.373 0.777 0.49 1.43 0.49 0.683 0 1.055-0.117 1.44-0.49 0.4-0.357 0.48-0.793 0.48-1.43v-3.2c0-0.565-0.1-1.1-0.488-1.458-0.4-0.367-0.813-0.463-1.433-0.463zM19.84 5.76v5.12c0 0.613 0.508 0.64 0.64 0.64 0.117 0 0.633-0.203 0.64-0.64v-5.12h1.28v7.040h-1.28v-0.64c-0.282 0.313-0.628 0.64-1.28 0.64s-1.28-0.658-1.28-1.28v-5.76zM15.36 7.040c0.193 0 0.64-0.003 0.64 0.64v3.2c0 0.62-0.432 0.64-0.64 0.64-0.193 0-0.64-0.008-0.64-0.64v-3.2c0-0.522 0.277-0.64 0.64-0.64zM6.4 14.080c-2.3 0-3.84 1.525-3.84 3.84v6.080c0 2.315 1.54 4.16 3.84 4.16h19.2c2.3 0 3.84-1.525 3.84-3.84v-6.4c0-2.315-1.54-3.84-3.84-3.84zM7.68 16.64h3.84v1.28h-1.28v7.68h-1.28v-7.68h-1.28zM16.64 16.64h1.28v2.56c0.148-0.23 0.367-0.413 0.578-0.515 0.205-0.105 0.413-0.165 0.622-0.165 0.415 0 0.74 0.15 0.962 0.43 0.223 0.282 0.398 0.657 0.398 1.21v3.84c0 0.475-0.16 0.77-0.37 1.023-0.205 0.253-0.512 0.573-0.91 0.578-0.672 0.008-1.032-0.352-1.28-0.64v0.64h-1.28zM11.52 18.56h1.28v5.12c0 0.148 0.172 0.645 0.64 0.64 0.52-0.005 0.525-0.49 0.64-0.64v-5.12h1.28v7.040h-1.28v-0.64c-0.238 0.28-0.36 0.367-0.627 0.5-0.265 0.15-0.535 0.14-0.785 0.14-0.31 0-0.662-0.28-0.828-0.49-0.148-0.192-0.32-0.39-0.32-0.79zM23.168 18.56c0.608 0 1.035 0.13 1.357 0.47 0.33 0.34 0.435 0.738 0.435 1.378v1.992h-2.56v0.99c0 0.358 0.047 0.585 0.14 0.72 0.087 0.148 0.265 0.212 0.5 0.21 0.26-0.003 0.425-0.055 0.512-0.172 0.090-0.105 0.128-0.402 0.128-0.788v-0.32h1.28v0.38c0 0.698-0.055 1.218-0.4 1.558-0.325 0.358-0.832 0.523-1.497 0.523-0.608 0-1.082-0.18-1.422-0.55s-0.517-0.878-0.517-1.53v-3.012c0-0.58 0.203-1.010 0.575-1.393 0.3-0.308 0.863-0.455 1.47-0.455zM18.56 19.52c0.352 0 0.64 0.32 0.64 0.96v3.215c0 0.352-0.288 0.625-0.64 0.625s-0.635-0.135-0.64-0.32v-3.84c0.005-0.323 0.288-0.64 0.64-0.64zM23.040 19.84c0.352 0 0.64 0.247 0.64 0.64v0.64h-1.28v-0.64c0.005-0.343 0.288-0.64 0.64-0.64z"></path>
</symbol>
<symbol id="icon-github" viewBox="0 0 32 32">
<path d="M11.386 29.975c0.455-0.196 0.774-0.648 0.774-1.175v-3.456c0-0.126 0.010-0.257 0.026-0.39-0.009 0.003-0.017 0.004-0.026 0.006 0 0-1.92 0-2.304 0-0.96 0-1.792-0.384-2.176-1.152-0.448-0.832-0.64-2.24-1.792-3.008-0.192-0.128-0.064-0.32 0.32-0.32 0.384 0.064 1.216 0.576 1.728 1.28 0.576 0.704 1.152 1.28 2.176 1.28 1.592 0 2.445-0.080 2.958-0.355 0.598-0.889 1.425-1.565 2.29-1.565v-0.016c-3.628-0.116-5.945-1.322-7.024-3.184-2.346 0.027-4.388 0.259-5.553 0.452-0.037-0.209-0.069-0.42-0.097-0.632 1.15-0.189 3.1-0.414 5.341-0.457-0.072-0.177-0.134-0.358-0.186-0.543-2.247-0.114-4.186-0.025-5.24 0.062-0.013-0.212-0.030-0.424-0.033-0.639 1.055-0.086 2.942-0.173 5.132-0.071-0.051-0.32-0.083-0.647-0.083-0.988 0-1.088 0.384-2.24 1.088-3.2-0.32-1.088-0.768-3.392 0.128-4.224 1.728 0 2.944 0.832 3.52 1.344 1.087-0.449 2.303-0.705 3.647-0.705s2.56 0.256 3.584 0.704c0.576-0.512 1.792-1.344 3.52-1.344 0.96 0.896 0.448 3.2 0.128 4.224 0.704 0.96 1.088 2.048 1.024 3.2 0 0.31-0.029 0.609-0.070 0.902 2.239-0.11 4.177-0.022 5.251 0.065-0.001 0.216-0.021 0.426-0.033 0.639-1.069-0.088-3.056-0.179-5.35-0.057-0.057 0.215-0.126 0.424-0.208 0.627 2.269 0.029 4.266 0.249 5.471 0.441-0.028 0.212-0.060 0.423-0.097 0.632-1.224-0.196-3.309-0.425-5.683-0.436-1.066 1.842-3.341 3.043-6.897 3.183v0.020c1.664 0 3.2 2.496 3.2 4.224v3.456c0 0.527 0.319 0.979 0.774 1.175 5.863-1.94 10.106-7.47 10.106-13.975 0-8.116-6.603-14.72-14.72-14.72s-14.72 6.604-14.72 14.72c0 6.505 4.243 12.035 10.106 13.975z"></path>
</symbol>
<symbol id="icon-github1" viewBox="0 0 32 32">
<path d="M16 3.2c-7.069 0-12.8 5.731-12.8 12.8 0 5.998 4.13 11.017 9.698 12.405-0.060-0.173-0.098-0.373-0.098-0.622v-2.188c-0.519 0-1.39 0-1.609 0-0.876 0-1.654-0.377-2.032-1.076-0.419-0.778-0.492-1.967-1.531-2.694-0.308-0.242-0.074-0.518 0.282-0.481 0.656 0.186 1.2 0.636 1.712 1.303 0.51 0.669 0.75 0.82 1.702 0.82 0.462 0 1.153-0.027 1.804-0.129 0.35-0.889 0.955-1.707 1.694-2.093-4.262-0.438-6.297-2.559-6.297-5.438 0-1.239 0.528-2.438 1.425-3.449-0.294-1.003-0.665-3.047 0.113-3.826 1.918 0 3.077 1.244 3.356 1.58 0.956-0.327 2.005-0.513 3.108-0.513 1.105 0 2.159 0.186 3.117 0.515 0.275-0.334 1.436-1.582 3.358-1.582 0.781 0.78 0.406 2.833 0.109 3.834 0.892 1.008 1.417 2.204 1.417 3.441 0 2.877-2.031 4.996-6.287 5.437 1.171 0.611 2.026 2.329 2.026 3.622v2.916c0 0.111-0.025 0.191-0.037 0.286 4.988-1.748 8.571-6.484 8.571-12.069 0-7.069-5.731-12.8-12.8-12.8z"></path>
</symbol>
<symbol id="icon-github2" viewBox="0 0 32 32">
<path d="M12.504 28.003c-0.002-0.184-0.003-0.981-0.005-1.727l-0.002-0.775c-3.364 0.457-4.179-1.89-4.188-1.915-0.467-1.184-1.106-1.523-1.133-1.537l-0.062-0.036c-0.231-0.158-0.846-0.579-0.671-1.131 0.157-0.498 0.768-0.55 1.045-0.541 1.537 0.108 2.315 1.489 2.347 1.547 0.784 1.345 1.982 1.206 2.755 0.922 0.072-0.344 0.184-0.66 0.329-0.939-2.478-0.439-5.285-1.758-5.285-6.552 0-1.316 0.41-2.48 1.221-3.465-0.181-0.603-0.387-1.833 0.223-3.383l0.087-0.221 0.226-0.072c0.208-0.069 1.344-0.312 3.679 1.216 0.964-0.247 1.985-0.374 3.037-0.38 1.058 0.005 2.079 0.133 3.045 0.38 2.334-1.529 3.467-1.283 3.675-1.216l0.226 0.072 0.087 0.22c0.613 1.549 0.407 2.78 0.226 3.383 0.809 0.982 1.219 2.146 1.219 3.465 0 4.796-2.811 6.11-5.294 6.544 0.282 0.532 0.434 1.201 0.434 1.939 0 0.841-0.003 3.602-0.008 4.201l-1-0.007c0.004-0.598 0.008-3.354 0.008-4.195 0-1.221-0.471-1.761-0.675-1.937l-0.865-0.748 1.137-0.127c2.602-0.289 5.262-1.189 5.262-5.671 0-1.165-0.389-2.181-1.155-3.018l-0.215-0.235 0.121-0.293c0.083-0.2 0.447-1.221-0.021-2.646-0.379 0.023-1.284 0.201-2.792 1.223l-0.192 0.13-0.223-0.062c-0.931-0.259-1.969-0.398-3-0.403-1.026 0.005-2.062 0.144-2.992 0.403l-0.223 0.062-0.191-0.13c-1.51-1.022-2.417-1.202-2.797-1.225-0.467 1.425-0.103 2.446-0.020 2.646l0.121 0.293-0.214 0.235c-0.768 0.841-1.157 1.856-1.157 3.018 0 4.479 2.655 5.385 5.252 5.68l1.126 0.128-0.854 0.745c-0.186 0.163-0.515 0.556-0.627 1.363l-0.037 0.274-0.253 0.113c-0.661 0.296-2.92 1.081-4.274-1.242-0.008-0.012-0.272-0.473-0.751-0.779 0.323 0.32 0.716 0.837 1.034 1.643 0.033 0.095 0.678 1.811 3.64 1.169l0.603-0.131 0.006 1.989c0.002 0.744 0.003 1.538 0.005 1.722l-0.999 0.007z"></path>
<path d="M16 29c-7.168 0-13-5.831-13-13s5.832-13 13-13 13 5.832 13 13-5.831 13-13 13zM16 4c-6.617 0-12 5.383-12 12s5.383 12 12 12 12-5.383 12-12-5.383-12-12-12z"></path>
</symbol>

<symbol id="icon-moon" viewBox="0 0 32 32">
<path fill="#f0eedb" style="fill: var(--color1, #f0eedb)" d="M5.676 3.776c6.598-5.769 16.561-4.75 22.33 1.848s5.259 16.393-1.34 22.161-16.749 5.293-22.517-1.305-5.072-16.936 1.527-22.705z"></path>
<path fill="#ebe9d2" style="fill: var(--color2, #ebe9d2)" d="M6.731 5.583c6.245-5.46 15.551-4.636 20.864 1.441s4.712 15.212-1.533 20.671c-6.245 5.46-15.733 5.145-21.046-0.932s-4.53-15.72 1.715-21.18z"></path>
<path fill="#d4d5b1" style="fill: var(--color3, #d4d5b1)" d="M15.252 8.849c-1.12 2.329-3.94 3.209-6.269 2.089s-3.327-3.835-2.207-6.164c1.12-2.329 3.927-3.378 6.257-2.258s3.34 4.004 2.22 6.333z"></path>
<path fill="#040000" opacity="0.06" style="fill: var(--color4, #040000)" d="M8.006 6.109c1.12-2.329 3.927-3.378 6.257-2.258 0.258 0.124 0.5 0.27 0.724 0.434-0.458-0.744-1.122-1.369-1.954-1.769-2.329-1.12-5.137-0.071-6.257 2.258-0.988 2.055-0.328 4.409 1.44 5.704-0.78-1.279-0.916-2.9-0.21-4.369z"></path>
<path fill="#d4d5b1" style="fill: var(--color3, #d4d5b1)" d="M13.57 13.653c-0.073-0.358 0.169-0.699 0.528-0.772s0.703 0.147 0.776 0.506-0.153 0.717-0.512 0.79c-0.358 0.073-0.719-0.165-0.792-0.524z"></path>
<path fill="#fff" opacity="0.5" style="fill: var(--color5, #fff)" d="M22.697 6.064c-0.073-0.358 0.169-0.699 0.528-0.772s0.703 0.147 0.776 0.506c0.073 0.358-0.154 0.717-0.512 0.79s-0.719-0.165-0.792-0.524z"></path>
<path fill="#d4d5b1" style="fill: var(--color3, #d4d5b1)" d="M17.672 24.905c0.543-0.475 1.363-0.391 1.838 0.152s0.433 1.349-0.11 1.824-1.379 0.436-1.854-0.107c-0.475-0.543-0.417-1.394 0.126-1.869z"></path>
<path fill="#fff" opacity="0.5" style="fill: var(--color5, #fff)" d="M3.646 13.816c-0.073-0.358 0.169-0.699 0.528-0.772s0.703 0.147 0.776 0.506-0.154 0.717-0.512 0.79c-0.358 0.073-0.719-0.165-0.792-0.524z"></path>
<path fill="#d4d5b1" style="fill: var(--color3, #d4d5b1)" d="M29.31 17.612c-0.233 2.291-2.329 3.881-4.619 3.648s-3.949-2.205-3.716-4.496c0.233-2.291 2.267-4.019 4.558-3.786s4.010 2.343 3.777 4.634z"></path>
<path fill="#d4d5b1" style="fill: var(--color3, #d4d5b1)" d="M10.828 20.702c0.914 1.583 0.304 3.581-1.279 4.495s-3.567 0.415-4.481-1.168c-0.914-1.583-0.408-3.641 1.175-4.556s3.671-0.355 4.585 1.228z"></path>
<path fill="#040000" opacity="0.06" style="fill: var(--color4, #040000)" d="M7.051 20.276c1.154-0.667 2.576-0.549 3.616 0.176-0.981-1.39-2.928-1.844-4.425-0.979-1.583 0.914-2.090 2.973-1.175 4.556 0.253 0.437 0.587 0.791 0.971 1.056-0.057-0.081-0.112-0.165-0.163-0.253-0.914-1.583-0.408-3.641 1.175-4.556z"></path>
<path fill="#040000" opacity="0.06" style="fill: var(--color4, #040000)" d="M21.857 17.637c0.233-2.291 2.267-4.019 4.558-3.786 0.764 0.078 1.463 0.364 2.049 0.796-0.688-0.908-1.731-1.546-2.931-1.668-2.291-0.233-4.325 1.496-4.558 3.786-0.154 1.515 0.52 2.891 1.657 3.717-0.582-0.785-0.883-1.78-0.775-2.845z"></path>
<path fill="#040000" opacity="0.1" style="fill: var(--color4, #040000)" d="M15.926 23.863c-6.585 0-12.401-3.254-15.92-8.229-0.169 6.233 3.472 12.146 9.621 14.797 8.049 3.469 17.478 0.096 20.948-7.953 0.954-2.214 1.354-4.547 1.268-6.839-3.519 4.971-9.334 8.223-15.917 8.223z"></path>
</symbol>
<symbol id="icon-moon1" viewBox="0 0 32 32">
<path d="M9.861 6.416c0.863 0 1.573 0.645 1.677 1.478 0.010-0.084 0.016-0.168 0.016-0.255 0-1.189-0.966-2.153-2.158-2.153-1.191 0-2.157 0.963-2.157 2.153s0.966 2.154 2.157 2.154c0.085 0 0.167-0.007 0.248-0.015-0.832-0.107-1.476-0.814-1.476-1.673 0-0.932 0.757-1.688 1.692-1.688z"></path>
<path d="M16 0.103c-8.836 0-16 7.117-16 15.896s7.163 15.896 16 15.896c8.837 0 16-7.117 16-15.896s-7.164-15.896-16-15.896zM5.669 14.392c-1.192 0-2.158 0.964-2.158 2.152 0 1.189 0.966 2.154 2.158 2.154 0.068 0 0.133-0.006 0.199-0.012-0.178 0.93-0.276 1.889-0.276 2.87 0 2.046 0.399 4.021 1.189 5.884-3.489-2.777-5.539-6.97-5.539-11.44 0-8.084 6.62-14.66 14.757-14.66 5.13 0 9.821 2.616 12.514 6.901-2.028-1.139-4.279-1.798-6.61-1.937 0.002-0.039 0.007-0.077 0.007-0.116 0-1.417-1.152-2.566-2.572-2.566s-2.572 1.149-2.572 2.566c0 0.224 0.032 0.441 0.086 0.648-4.295 1.189-7.841 4.183-9.745 8.108-0.382-0.342-0.886-0.552-1.439-0.552zM6.858 15.492c-0.441 1.009-0.774 2.073-0.987 3.18-0.809-0.126-1.429-0.82-1.429-1.663 0-0.932 0.756-1.688 1.691-1.688 0.261-0 0.505 0.065 0.726 0.17zM21.858 6.303c-0.295-0.017-0.59-0.028-0.887-0.028-1.058 0-2.090 0.107-3.087 0.31 0.081-1.037 0.948-1.854 2.008-1.854 0.962 0 1.766 0.673 1.966 1.573zM12.333 26.005c-1.42 0-2.572-1.149-2.572-2.566 0-0.102 0.008-0.203 0.020-0.304 0.123 0.992 0.97 1.761 1.999 1.761 1.114 0 2.017-0.901 2.017-2.012 0-1.024-0.767-1.867-1.759-1.994 0.097-0.012 0.195-0.018 0.296-0.018 1.42 0 2.572 1.149 2.572 2.567s-1.151 2.566-2.572 2.566zM17.303 17.514c-1.42 0-2.572-1.149-2.572-2.567 0-0.103 0.008-0.204 0.020-0.304 0.123 0.992 0.97 1.761 1.999 1.761 1.114 0 2.017-0.901 2.017-2.012 0-1.024-0.767-1.867-1.759-1.994 0.097-0.011 0.195-0.018 0.296-0.018 1.42 0 2.572 1.149 2.572 2.567s-1.151 2.567-2.572 2.567zM23.309 27.249c-1.42 0-2.572-1.149-2.572-2.567 0-0.103 0.008-0.203 0.020-0.304 0.124 0.992 0.971 1.761 1.999 1.761 1.114 0 2.017-0.901 2.017-2.012 0-1.024-0.767-1.867-1.759-1.994 0.098-0.011 0.196-0.018 0.296-0.018 1.42 0 2.572 1.149 2.572 2.567s-1.152 2.567-2.572 2.567zM26.361 16.33c-1.42 0-2.572-1.149-2.572-2.566 0-0.103 0.008-0.204 0.020-0.304 0.123 0.992 0.971 1.761 1.999 1.761 1.114 0 2.017-0.901 2.017-2.012 0-1.024-0.767-1.867-1.759-1.994 0.098-0.011 0.196-0.018 0.296-0.018 1.42 0 2.572 1.149 2.572 2.567s-1.152 2.566-2.572 2.566z"></path>
</symbol>
<symbol id="icon-moon2" viewBox="0 0 32 32">
<path d="M27.822 20.422c0.069-0.157-0.088-0.317-0.25-0.259-4.484 1.619-9.639 0.664-13.022-2.718-3.367-3.366-4.325-8.489-2.735-12.957 0.066-0.184-0.116-0.364-0.295-0.283-0.012 0.005-0.024 0.011-0.036 0.016-2.474 1.117-4.675 3.002-5.968 5.376-1.382 2.538-1.838 5.478-1.289 8.315s2.067 5.396 4.296 7.236 5.029 2.849 7.92 2.852c2.486 0 4.915-0.743 6.975-2.135 1.902-1.285 3.408-3.231 4.358-5.337 0.016-0.035 0.032-0.071 0.047-0.106z"></path>
</symbol>
<symbol id="icon-sun" viewBox="0 0 32 32">
<path fill="#394240" style="fill: var(--color6, #394240)" d="M16 7.001c-4.971 0-9 4.029-9 9s4.029 9 9 9 9-4.029 9-9-4.029-9-9-9zM16 24.001c-4.418 0-8-3.582-8-8s3.582-8 8-8 8 3.582 8 8-3.581 8-8 8z"></path>
<path fill="#394240" style="fill: var(--color6, #394240)" d="M31.5 15.5h-5c-0.276 0-0.5 0.223-0.5 0.5s0.224 0.5 0.5 0.5h5c0.276 0 0.5-0.224 0.5-0.5s-0.224-0.5-0.5-0.5z"></path>
<path fill="#394240" style="fill: var(--color6, #394240)" d="M5.729 18.235l-1.931 0.517c-0.267 0.073-0.425 0.346-0.353 0.613s0.345 0.425 0.613 0.352l1.931-0.517c0.266-0.072 0.425-0.345 0.354-0.613-0.072-0.267-0.346-0.425-0.612-0.354z"></path>
<path fill="#394240" style="fill: var(--color6, #394240)" d="M24.66 11c0.139 0.239 0.444 0.322 0.683 0.182l4.33-2.5c0.239-0.137 0.322-0.444 0.183-0.683-0.137-0.239-0.444-0.322-0.683-0.183l-4.33 2.5c-0.239 0.139-0.321 0.443-0.183 0.682z"></path>
<path fill="#394240" style="fill: var(--color6, #394240)" d="M8.929 23.072c-0.195-0.195-0.511-0.195-0.707 0l-1.414 1.414c-0.196 0.195-0.195 0.512 0 0.707s0.511 0.195 0.707 0l1.414-1.414c0.196-0.195 0.196-0.512 0-0.707z"></path>
<path fill="#394240" style="fill: var(--color6, #394240)" d="M21 7.34c0.239 0.138 0.545 0.056 0.683-0.184l2.5-4.33c0.139-0.24 0.056-0.546-0.183-0.683-0.239-0.139-0.544-0.057-0.683 0.183l-2.5 4.331c-0.139 0.239-0.057 0.544 0.182 0.683z"></path>
<path fill="#394240" style="fill: var(--color6, #394240)" d="M13.412 25.659c-0.266-0.072-0.54 0.088-0.613 0.354l-0.518 1.931c-0.072 0.267 0.088 0.541 0.354 0.613 0.267 0.073 0.54-0.086 0.611-0.354l0.518-1.931c0.072-0.265-0.086-0.54-0.354-0.613z"></path>
<path fill="#394240" style="fill: var(--color6, #394240)" d="M16 6c0.277 0 0.5-0.223 0.501-0.5v-5c0-0.277-0.224-0.5-0.501-0.5-0.275 0-0.499 0.224-0.499 0.5l0.001 5c0 0.277 0.223 0.5 0.499 0.5z"></path>
<path fill="#394240" style="fill: var(--color6, #394240)" d="M19.201 26.012c-0.070-0.267-0.345-0.425-0.613-0.354-0.267 0.072-0.424 0.346-0.354 0.613l0.517 1.931c0.072 0.267 0.346 0.425 0.613 0.354s0.424-0.345 0.352-0.613l-0.517-1.931z"></path>
<path fill="#394240" style="fill: var(--color6, #394240)" d="M10.319 7.156c0.137 0.239 0.444 0.322 0.681 0.183 0.24-0.138 0.322-0.444 0.184-0.684l-2.5-4.33c-0.138-0.239-0.444-0.321-0.684-0.183-0.239 0.138-0.321 0.444-0.183 0.683l2.501 4.33z"></path>
<path fill="#394240" style="fill: var(--color6, #394240)" d="M23.779 23.070c-0.194-0.195-0.511-0.195-0.707 0s-0.194 0.512 0 0.707l1.414 1.414c0.196 0.197 0.512 0.195 0.707 0s0.195-0.511-0-0.707l-1.414-1.414z"></path>
<path fill="#394240" style="fill: var(--color6, #394240)" d="M2.327 8.682l4.331 2.499c0.239 0.139 0.544 0.056 0.681-0.181 0.138-0.24 0.058-0.545-0.182-0.684l-4.33-2.5c-0.239-0.139-0.545-0.056-0.683 0.184-0.137 0.239-0.055 0.544 0.183 0.682z"></path>
<path fill="#394240" style="fill: var(--color6, #394240)" d="M26.014 19.2l1.931 0.517c0.267 0.073 0.541-0.088 0.613-0.355s-0.086-0.54-0.354-0.611l-1.931-0.517c-0.265-0.073-0.541 0.086-0.613 0.354s0.088 0.541 0.354 0.613z"></path>
<path fill="#394240" style="fill: var(--color6, #394240)" d="M6 16c0-0.277-0.223-0.5-0.499-0.501l-5.001 0.001c-0.276 0-0.5 0.223-0.5 0.5 0.001 0.276 0.224 0.5 0.5 0.5l5-0.001c0.276 0 0.5-0.224 0.499-0.499z"></path>
<path fill="#394240" style="fill: var(--color6, #394240)" d="M26.273 13.764l1.931-0.518c0.267-0.072 0.425-0.347 0.353-0.614-0.071-0.265-0.344-0.424-0.612-0.352l-1.931 0.518c-0.267 0.070-0.425 0.345-0.354 0.613 0.070 0.267 0.346 0.424 0.613 0.354z"></path>
<path fill="#f9ebb2" style="fill: var(--color7, #f9ebb2)" d="M24 16c0 4.418-3.582 8-8 8s-8-3.582-8-8c0-4.418 3.582-8 8-8s8 3.582 8 8z"></path>
<path fill="#394240" style="fill: var(--color6, #394240)" d="M7.34 21c-0.138-0.24-0.443-0.323-0.683-0.184l-4.33 2.501c-0.239 0.139-0.322 0.444-0.183 0.683 0.139 0.238 0.445 0.32 0.683 0.183l4.33-2.501c0.239-0.137 0.322-0.442 0.183-0.681z"></path>
<path fill="#394240" style="fill: var(--color6, #394240)" d="M23.072 8.928c0.195 0.197 0.511 0.194 0.707 0l1.414-1.414c0.196-0.196 0.195-0.511-0.001-0.707-0.194-0.196-0.511-0.196-0.706 0l-1.414 1.414c-0.196 0.194-0.195 0.512 0 0.707z"></path>
<path fill="#394240" style="fill: var(--color6, #394240)" d="M11 24.66c-0.239-0.139-0.544-0.056-0.682 0.181l-2.5 4.332c-0.138 0.238-0.058 0.544 0.182 0.683 0.239 0.137 0.545 0.055 0.684-0.183l2.499-4.331c0.138-0.238 0.057-0.544-0.182-0.681z"></path>
<path fill="#394240" style="fill: var(--color6, #394240)" d="M18.589 6.34c0.265 0.072 0.539-0.088 0.613-0.354l0.517-1.931c0.072-0.268-0.088-0.542-0.355-0.612-0.265-0.072-0.54 0.086-0.611 0.353l-0.517 1.932c-0.073 0.266 0.087 0.54 0.354 0.612z"></path>
<path fill="#394240" style="fill: var(--color6, #394240)" d="M16 26c-0.277-0.001-0.499 0.223-0.5 0.499l0.001 5.002c0 0.274 0.222 0.499 0.499 0.499 0.276 0 0.5-0.224 0.5-0.5l-0.002-5.001c0-0.276-0.221-0.499-0.499-0.499z"></path>
<path fill="#394240" style="fill: var(--color6, #394240)" d="M12.8 5.987c0.069 0.266 0.345 0.425 0.613 0.354 0.266-0.071 0.423-0.346 0.354-0.612l-0.518-1.931c-0.072-0.268-0.347-0.426-0.614-0.353-0.265 0.071-0.425 0.345-0.352 0.613l0.518 1.931z"></path>
<path fill="#394240" style="fill: var(--color6, #394240)" d="M21.681 24.843c-0.137-0.238-0.442-0.322-0.681-0.183-0.239 0.137-0.32 0.442-0.183 0.683l2.502 4.33c0.137 0.239 0.442 0.323 0.681 0.183s0.321-0.445 0.183-0.683l-2.502-4.329z"></path>
<path fill="#394240" style="fill: var(--color6, #394240)" d="M8.222 8.928c0.194 0.197 0.511 0.196 0.707 0 0.196-0.194 0.194-0.51 0-0.707l-1.414-1.414c-0.197-0.196-0.513-0.194-0.707 0.001-0.195 0.194-0.196 0.51 0 0.706l1.414 1.414z"></path>
<path fill="#394240" style="fill: var(--color6, #394240)" d="M29.674 23.317l-4.331-2.499c-0.239-0.137-0.544-0.058-0.681 0.183-0.139 0.238-0.056 0.543 0.182 0.681l4.332 2.5c0.238 0.137 0.543 0.058 0.681-0.183 0.137-0.24 0.055-0.545-0.183-0.683z"></path>
<path fill="#394240" style="fill: var(--color6, #394240)" d="M5.987 12.799l-1.932-0.518c-0.268-0.072-0.542 0.088-0.612 0.354-0.072 0.265 0.086 0.54 0.353 0.613l1.932 0.517c0.266 0.073 0.54-0.087 0.612-0.354 0.072-0.264-0.088-0.538-0.353-0.612z"></path>
<path fill="#394240" style="fill: var(--color6, #394240)" d="M16 10.001c-0.277 0-0.5 0.223-0.5 0.5s0.223 0.5 0.5 0.5c2.761 0 5 2.239 5 5 0 0.276 0.224 0.5 0.5 0.5s0.5-0.224 0.5-0.5c0-3.313-2.686-6-6-6z"></path>
</symbol>
<symbol id="icon-sun1" viewBox="0 0 32 32">
<path d="M15.94 2.54c-0.027 0.005-0.055 0.013-0.080 0.020-0.297 0.067-0.508 0.335-0.5 0.64v3.84c-0.002 0.23 0.117 0.445 0.318 0.563 0.2 0.115 0.445 0.115 0.645 0 0.2-0.117 0.32-0.333 0.317-0.563v-3.84c0.008-0.185-0.067-0.362-0.2-0.487-0.135-0.127-0.317-0.19-0.5-0.172zM6.82 6.3c-0.24 0.043-0.433 0.218-0.5 0.45-0.067 0.235 0.003 0.485 0.18 0.65l2.72 2.72c0.155 0.19 0.402 0.277 0.643 0.223 0.238-0.055 0.425-0.242 0.48-0.48 0.055-0.24-0.033-0.488-0.223-0.643l-2.72-2.72c-0.133-0.143-0.325-0.215-0.52-0.2-0.020 0-0.040 0-0.060 0zM24.98 6.3c-0.145 0.020-0.28 0.093-0.38 0.2l-2.72 2.72c-0.19 0.155-0.277 0.402-0.223 0.643 0.055 0.238 0.242 0.425 0.48 0.48 0.24 0.055 0.488-0.033 0.642-0.223l2.72-2.72c0.2-0.19 0.258-0.487 0.14-0.737-0.12-0.253-0.385-0.397-0.66-0.362zM15.94 9.6c-0.020 0.005-0.040 0.012-0.060 0.020-0.040 0.002-0.080 0.010-0.12 0.020-0.008 0.008-0.012 0.012-0.020 0.020-3.395 0.145-6.14 2.91-6.14 6.34 0 3.522 2.877 6.4 6.4 6.4s6.4-2.878 6.4-6.4c0-3.418-2.723-6.173-6.1-6.34-0.023 0-0.038-0.020-0.060-0.020-0.065-0.025-0.133-0.037-0.2-0.040-0.012 0-0.027 0-0.040 0-0.020 0-0.040 0-0.060 0zM15.96 10.88c0.012 0 0.027 0 0.040 0 0.020 0 0.040 0 0.060 0 2.8 0.033 5.060 2.313 5.060 5.12 0 2.83-2.29 5.12-5.12 5.12-2.828 0-5.12-2.29-5.12-5.12 0-2.815 2.27-5.098 5.080-5.12zM3.020 15.36c-0.353 0.050-0.6 0.377-0.55 0.73s0.377 0.6 0.73 0.55h3.84c0.23 0.003 0.445-0.117 0.563-0.317 0.115-0.2 0.115-0.445 0-0.645-0.117-0.2-0.332-0.32-0.563-0.318h-3.84c-0.020 0-0.040 0-0.060 0s-0.040 0-0.060 0c-0.020 0-0.040 0-0.060 0zM24.78 15.36c-0.352 0.050-0.6 0.377-0.55 0.73s0.378 0.6 0.73 0.55h3.84c0.23 0.003 0.445-0.117 0.563-0.317 0.115-0.2 0.115-0.445 0-0.645-0.117-0.2-0.332-0.32-0.563-0.318h-3.84c-0.020 0-0.040 0-0.060 0s-0.040 0-0.060 0c-0.020 0-0.040 0-0.060 0zM9.6 21.68c-0.145 0.020-0.28 0.093-0.38 0.2l-2.72 2.72c-0.19 0.155-0.277 0.402-0.223 0.642 0.055 0.238 0.242 0.425 0.48 0.48 0.24 0.055 0.487-0.032 0.643-0.223l2.72-2.72c0.19-0.183 0.248-0.465 0.145-0.707-0.1-0.242-0.342-0.398-0.605-0.392-0.020 0-0.040 0-0.060 0zM22.2 21.68c-0.24 0.043-0.433 0.218-0.5 0.45-0.067 0.235 0.003 0.485 0.18 0.65l2.72 2.72c0.155 0.19 0.402 0.277 0.642 0.223 0.238-0.055 0.425-0.242 0.48-0.48 0.055-0.24-0.032-0.488-0.223-0.642l-2.72-2.72c-0.12-0.128-0.285-0.198-0.46-0.2-0.020 0-0.040 0-0.060 0s-0.040 0-0.060 0zM15.94 24.3c-0.027 0.005-0.055 0.012-0.080 0.020-0.297 0.067-0.508 0.335-0.5 0.64v3.84c-0.002 0.23 0.117 0.445 0.318 0.563 0.2 0.115 0.445 0.115 0.645 0 0.2-0.117 0.32-0.332 0.317-0.563v-3.84c0.008-0.185-0.067-0.363-0.2-0.488-0.135-0.128-0.317-0.19-0.5-0.172z"></path>
</symbol>
<symbol id="icon-sun2" viewBox="0 0 32 32">
<path fill="#ff9800" style="fill: var(--color8, #ff9800)" d="M7.333 7.333h17.333v17.333h-17.333z"></path>
<path fill="#ff9800" style="fill: var(--color8, #ff9800)" d="M4 16l12-12 12 12-12 12z"></path>
<path fill="#ffeb3b" style="fill: var(--color9, #ffeb3b)" d="M8.667 16c0 4.051 3.282 7.333 7.333 7.333s7.333-3.282 7.333-7.333-3.283-7.333-7.333-7.333c-4.051 0-7.333 3.282-7.333 7.333z"></path>
</symbol>
<symbol id="icon-linkedin2" viewBox="0 0 32 32">
<path fill="#0177b5" style="fill: var(--color1, #0177b5)" d="M26 2c2.209 0 4 1.791 4 4v0 20c0 2.209-1.791 4-4 4v0h-20c-2.209 0-4-1.791-4-4v0-20c0-2.209 1.791-4 4-4v0h20zM26 0h-20c-3.31 0.010-5.99 2.69-6 5.999v20.001c0.010 3.31 2.69 5.99 5.999 6h20.001c3.31-0.010 5.99-2.69 6-5.999v-20.001c-0.010-3.31-2.69-5.99-5.999-6h-0.001z"></path>
<path fill="#0177b5" style="fill: var(--color1, #0177b5)" d="M23 8h-14c-0.552 0-1 0.448-1 1v0 14c0 0.552 0.448 1 1 1v0h14c0.552 0 1-0.448 1-1v0-14c0-0.552-0.448-1-1-1v0zM13 21.5h-2.5v-7.5h2.5zM11.75 13c-0.828 0-1.5-0.672-1.5-1.5s0.672-1.5 1.5-1.5c0.828 0 1.5 0.672 1.5 1.5v0c0 0.828-0.672 1.5-1.5 1.5v0zM21.5 21.5h-2.5v-5c0-0.415-0.56-0.75-1.25-0.75-1 0-1.25 1.335-1.25 1.75v4h-2.5v-7.5h2.5v1.75c0-1.25 1.12-1.75 2.5-1.75s2.5 1.119 2.5 2.5v0z"></path>
</symbol>
<symbol id="icon-linkedin1" viewBox="0 0 32 32">
<path d="M16 0c-8.837 0-16 7.163-16 16s7.163 16 16 16 16-7.163 16-16c-0-8.837-7.164-16-16-16zM11.731 23.735h-3.513v-11.349h3.513v11.349zM9.958 10.9c-1.147 0-2.077-0.938-2.077-2.094s0.93-2.094 2.077-2.094 2.077 0.938 2.077 2.094c0 1.157-0.93 2.094-2.077 2.094zM24.896 23.735h-3.496v-5.957c0-1.634-0.621-2.546-1.913-2.546-1.406 0-2.141 0.95-2.141 2.546v5.957h-3.369v-11.349h3.369v1.529s1.014-1.875 3.42-1.875c2.407 0 4.129 1.469 4.129 4.509l-0 7.186z"></path>
</symbol>
<symbol id="icon-linkedin" viewBox="0 0 32 32">
<path fill="#0b86ca" style="fill: var(--color2, #0b86ca)" d="M7.183 0h17.635c3.967 0 7.183 3.216 7.183 7.183v17.635c0 3.967-3.216 7.183-7.183 7.183h-17.635c-3.967 0-7.183-3.216-7.183-7.183v-17.635c0-3.967 3.216-7.183 7.183-7.183z"></path>
<path fill="#fff" style="fill: var(--color3, #fff)" d="M8.867 13.301h3.325v10.729h-3.325zM10.563 7.97c1.065 0 1.929 0.863 1.929 1.929s-0.863 1.929-1.929 1.929c-1.061 0-1.922-0.857-1.929-1.917v-0.001c-0-0.003-0-0.007-0-0.011 0-1.065 0.863-1.929 1.929-1.929 0 0 0 0 0 0v0zM14.321 13.301h3.203v1.463c0.619-1.043 1.74-1.732 3.022-1.732 0.048 0 0.096 0.001 0.144 0.003l-0.007-0c3.325 0 4.001 2.217 4.001 5.11v5.886h-3.325v-5.187c0-1.241 0-2.849-1.729-2.849s-1.995 1.352-1.995 2.749v5.309h-3.325z"></path>
</symbol>
<symbol id="icon-google" viewBox="0 0 32 32">
<path fill="#ffc107" style="fill: var(--color1, #ffc107)" d="M29.074 13.389h-1.074v-0.055h-12v5.333h7.535c-1.099 3.105-4.053 5.333-7.535 5.333-4.418 0-8-3.582-8-8s3.582-8 8-8c2.039 0 3.895 0.769 5.307 2.026l3.771-3.771c-2.381-2.219-5.567-3.588-9.079-3.588-7.363 0-13.333 5.97-13.333 13.333s5.97 13.333 13.333 13.333c7.363 0 13.333-5.97 13.333-13.333 0-0.894-0.092-1.767-0.259-2.611z"></path>
<path fill="#ff3d00" style="fill: var(--color2, #ff3d00)" d="M4.204 9.794l4.381 3.213c1.185-2.935 4.056-5.007 7.415-5.007 2.039 0 3.895 0.769 5.307 2.026l3.771-3.771c-2.381-2.219-5.567-3.588-9.079-3.588-5.121 0-9.563 2.891-11.796 7.127z"></path>
<path fill="#4caf50" style="fill: var(--color3, #4caf50)" d="M16 29.333c3.444 0 6.573-1.318 8.939-3.461l-4.127-3.492c-1.339 1.014-3.003 1.62-4.813 1.62-3.468 0-6.413-2.211-7.522-5.297l-4.348 3.35c2.207 4.318 6.688 7.281 11.87 7.281z"></path>
<path fill="#1976d2" style="fill: var(--color4, #1976d2)" d="M29.074 13.389h-1.074v-0.055h-12v5.333h7.535c-0.528 1.491-1.487 2.777-2.725 3.714 0.001-0.001 0.001-0.001 0.002-0.001l4.127 3.492c-0.292 0.265 4.394-3.205 4.394-9.871 0-0.894-0.092-1.767-0.259-2.611z"></path>
</symbol>
<symbol id="icon-up-arrow-orange" viewBox="0 0 32 32">
<path fill="#eef5fd" style="fill: var(--color1, #eef5fd)" d="M31 16c0 8.284-6.716 15-15 15s-15-6.716-15-15c0-8.284 6.716-15 15-15s15 6.716 15 15z"></path>
<path fill="#d7e2f2" style="fill: var(--color2, #d7e2f2)" d="M31 16c0-8.284-6.716-15-15-15v0 30c8.284 0 15-6.716 15-15v0z"></path>
<path fill="#ffc661" style="fill: var(--color3, #ffc661)" d="M11 17h10c0.001 0 0.001 0 0.002 0 0.552 0 1-0.448 1-1 0-0.196-0.057-0.38-0.154-0.534l0.002 0.004-5-8c-0.179-0.286-0.493-0.473-0.85-0.473s-0.671 0.187-0.848 0.469l-0.002 0.004-5 8c-0.095 0.15-0.152 0.334-0.152 0.53 0 0.552 0.448 1 1 1 0.001 0 0.001 0 0.002 0h-0z"></path>
<path fill="#ffc661" style="fill: var(--color3, #ffc661)" d="M11 19h10c0.552 0 1 0.448 1 1v4c0 0.552-0.448 1-1 1h-10c-0.552 0-1-0.448-1-1v-4c0-0.552 0.448-1 1-1z"></path>
<path fill="#e49f4e" style="fill: var(--color4, #e49f4e)" d="M21 17c0.001 0 0.001 0 0.002 0 0.552 0 1-0.448 1-1 0-0.196-0.057-0.38-0.154-0.534l0.002 0.004-5-8c-0.18-0.284-0.492-0.47-0.848-0.47-0.001 0-0.001 0-0.002 0h0v10zM21 19h-5v6h5c0.552 0 1-0.448 1-1v0-4c0-0.552-0.448-1-1-1v0z"></path>
</symbol>
<symbol id="icon-up-arrow-play" viewBox="0 0 32 32">
<path fill="#1fa85b" style="fill: var(--color5, #1fa85b)" d="M32 16c0 8.837-7.163 16-16 16s-16-7.163-16-16c0-8.837 7.163-16 16-16s16 7.163 16 16z"></path>
<path fill="#fff" style="fill: var(--color6, #fff)" d="M22.59 18.736c-1.88-1.52-3.76-3.039-5.639-4.559 0-1.079 0-2.159 0-3.238 0.638 0 1.276 0 1.913 0 0.348 0 0.612-0.405 0.412-0.713-0.959-1.48-1.918-2.959-2.876-4.439-0.008-0.015-0.018-0.029-0.028-0.043-0.001-0.001-0.002-0.003-0.003-0.004s-0.002-0.002-0.002-0.003c-0.011-0.015-0.021-0.029-0.034-0.042-0.104-0.128-0.242-0.179-0.379-0.172-0.134-0.003-0.268 0.051-0.369 0.176-0.008 0.009-0.015 0.018-0.022 0.027-0.004 0.006-0.009 0.010-0.013 0.016-0.006 0.009-0.011 0.017-0.017 0.026-0.002 0.004-0.005 0.007-0.007 0.011-0.961 1.483-1.921 2.966-2.882 4.449-0.196 0.302 0.063 0.711 0.407 0.711 0.668 0 1.336 0 2.004 0 0 1.083 0 2.165 0 3.248-1.879 1.519-3.758 3.038-5.637 4.557-0.77 0.622-0.641 1.327-0.637 2.257 0.005 1.238 0.011 2.476 0.016 3.714 0.005 1.223 1.9 1.235 1.895 0.014-0.007-1.526-0.013-3.052-0.020-4.577 1.778-1.437 3.556-2.875 5.333-4.312 1.779 1.438 3.557 2.876 5.335 4.313-0.006 1.521-0.013 3.042-0.019 4.563-0.005 1.224 1.89 1.234 1.895 0.014 0.005-1.238 0.011-2.476 0.016-3.714 0.004-0.937 0.132-1.651-0.644-2.278z"></path>
</symbol>
<symbol id="icon-arrow_circle" viewBox="0 0 32 32">
<path d="M30 16c0-7.72-6.28-14-14-14s-14 6.28-14 14c0 6.11 3.91 11.47 9.73 13.34 0.53 0.17 1.090-0.13 1.26-0.65 0.16-0.53-0.13-1.090-0.65-1.26-4.99-1.59-8.34-6.19-8.34-11.43 0-6.62 5.38-12 12-12s12 5.38 12 12c0 6.28-4.85 11.45-11 11.96v-17.38c1.11 0.93 2.78 2.89 4.17 4.97 0.3 0.47 0.92 0.59 1.38 0.28 0.46-0.3 0.59-0.93 0.28-1.38-1.29-1.94-4.54-6.45-6.83-6.45s-5.54 4.51-6.83 6.45c-0.31 0.45-0.18 1.080 0.28 1.38 0.45 0.31 1.080 0.19 1.38-0.28 1.39-2.080 3.060-4.040 4.17-4.97v18.42c0 0.55 0.45 1 1 1 0.34 0 0.67-0.010 1-0.040 7.26-0.51 13-6.58 13-13.96z"></path>
</symbol>
<symbol id="icon-two-arrows-orange-up" viewBox="0 0 32 32">
<path fill="#ece4b7" style="fill: var(--color7, #ece4b7)" d="M4 2.667h24c0.736 0 1.333 0.597 1.333 1.333v24c0 0.736-0.597 1.333-1.333 1.333h-24c-0.736 0-1.333-0.597-1.333-1.333v-24c0-0.736 0.597-1.333 1.333-1.333z"></path>
<path fill="#ff8e31" style="fill: var(--color8, #ff8e31)" d="M21.333 17.333c-0.368-0-0.701-0.149-0.943-0.391l-4.391-4.391-4.391 4.391c-0.243 0.251-0.583 0.407-0.959 0.407-0.736 0-1.333-0.597-1.333-1.333 0-0.376 0.156-0.716 0.407-0.959l5.334-5.334c0.241-0.241 0.575-0.39 0.943-0.39s0.701 0.149 0.943 0.39l5.333 5.333c0.241 0.241 0.39 0.575 0.39 0.943 0 0.736-0.597 1.333-1.333 1.333h-0z"></path>
<path fill="#ff8e31" style="fill: var(--color8, #ff8e31)" d="M21.333 22.667c-0.368-0-0.701-0.149-0.943-0.391l-4.391-4.391-4.391 4.391c-0.243 0.251-0.583 0.407-0.959 0.407-0.736 0-1.333-0.597-1.333-1.333 0-0.376 0.156-0.716 0.407-0.959l5.334-5.334c0.241-0.241 0.575-0.39 0.943-0.39s0.701 0.149 0.943 0.39l5.333 5.333c0.241 0.241 0.39 0.575 0.39 0.943 0 0.736-0.597 1.333-1.333 1.333h-0z"></path>
</symbol>
</defs>
</svg>

