<svg version="1.1" xmlns="http://www.w3.org/2000/svg" width="1285" height="512" viewBox="0 0 1285 512">
<title></title>
<g id="icomoon-ignore">
</g>
<path d="M172.006 84.7c0.105-0.433 0.172-0.74 0.194-0.9l0.521-3.779-23.674-0.133c-21.389-0.121-27.935 0.004-28.523 0.542-0.282 0.258-7.666 28.317-20.828 79.136-6.278 24.242-11.562 43.603-11.743 43.025s-7.695-28.249-16.698-61.49c-9.003-33.241-16.552-60.621-16.775-60.846-0.312-0.311-28.99-0.45-52.209-0.251-3.368 0.028-5.239-6.555 30.011 105.567 4.88 15.52 12.185 37.499 16.234 48.839 4.666 13.071 7.995 23.161 10.267 31.587 4.019 16.034 4.16 26.082 3.282 37.813-1.013 13.55-1.16 109.219-0.171 110.819 0.756 1.224 45.611 1.795 49.856 0.634 0.679-0.186 1.132-0.846 1.435-4.464 1.059-3.11 1.143-15.485 1.143-66.872v-65.641l2.871-9.056c1.878-5.925 6.6-21.498 10.495-34.61 3.894-13.111 8.605-28.81 10.469-34.886 16.917-55.16 33.070-109.415 33.497-112.505l0.346-2.528z"></path>
<path d="M423.061 164.326l-0.010 3.419-0.533 0.007-0.298 94.497-0.288 91.613-7.333 7.464c-8.212 8.36-14.793 11.55-20.744 10.057-6.481-1.627-6.32 0.9-6.861-107.384l-0.499-99.673h-47.158v3.425h-0.543v108.144c0 115.868-0.003 115.8 5.876 127.438 4.683 9.268 11.505 13.779 23.195 15.336h0.001c15.395 2.050 32-4.925 47.385-19.904l6.687-6.511v11.223c0 9.698 0.277 11.3 2.035 11.79 2.878 0.803 38.587 0.853 42.445 0.063l3.198-0.657v-3.314l0.543-0.111v-247.549l-47.098 0.629z"></path>
<path d="M303.446 213.165c-4.467-19.171-12.84-32.058-26.616-40.97-21.641-14-46.359-15.478-69.293-4.145-16.713 8.257-27.476 21.957-33.036 42.042-0.663 2.393-1.149 4.406-1.517 7.407-1.415 7.092-1.582 17.675-1.945 66.975-0.56 75.964 0.308 85.002 9.822 102.255 9.332 16.924 28.702 29.33 49.786 31.891 6.348 0.77 19.215-0.429 26.615-2.481 16.816-4.663 32.932-17.953 40.059-33.039 3.079-6.517 4.938-11.048 6.058-19.325 2.087-11.308 2.235-29.587 2.235-76.188-0.001-59.438-0.19-65.931-2.168-74.423zM249.67 368.002c-3.953 3.014-10.867 4.325-16.492 3.125-4.328-0.923-10.169-7.709-11.967-13.901-2.239-7.718-2.411-114.993-0.477-136.030 3.19-10.527 12.095-16.025 21.817-13.406 7.578 2.041 11.458 6.787 13.668 16.728 1.641 7.377 1.835 16.565 1.486 70.63-0.23 35.851-0.358 53.371-1.529 62.776-1.191 5.935-3.16 7.524-6.507 10.077z"></path>
<path d="M1150.195 267.068h22.785l-0.363-20.641c-0.352-18.934-0.631-21.1-3.162-26.236-3.991-8.105-9.88-11.701-19.223-11.701-11.224 0-18.339 5.424-21.694 16.571-1.429 4.743-2.931 37.343-1.853 40.154 0.602 1.572 3.862 1.853 23.511 1.853z"></path>
<path d="M997.898 220.119c-3.038-6.124-8.692-9.139-15.263-8.903-5.111 0.183-10.78 2.339-16.244 6.505l-4.070 3.089v148.299l4.070 3.089c9.215 7.026 19.337 8.515 26.309 3.851 2.76-1.846 4.558-4.389 5.96-8.43 1.823-5.262 1.982-12.002 1.745-74.386-0.247-65.022-0.39-68.851-2.507-73.113z"></path>
<path d="M1280.439 153.316c-4.54-54.421-8.151-72.082-19.376-94.772-14.864-30.050-36.346-45.894-66.938-49.373-23.655-2.689-112.658-6.485-195.022-8.316-142.594-3.169-377.029 2.929-406.969 10.586-13.837 3.539-24.213 9.555-35.011 20.302-18.922 18.831-30.196 45.84-34.726 83.198-10.346 85.303-10.567 188.363-0.594 276.757 4.288 38.020 13.121 62.721 29.705 83.079 10.347 12.703 28.176 23.499 44.13 26.721 11.192 2.262 67.21 5.399 148.803 8.334 12.153 0.437 44.333 1.19 71.515 1.672 56.65 1.006 160.813 0.411 220.36-1.26 40.063-1.125 113.101-4.086 126.75-5.141 3.839-0.296 12.735-0.864 19.768-1.262 23.639-1.335 38.677-6.284 52.798-17.38 18.276-14.359 32.428-40.897 38.408-72.019 5.657-29.447 9.444-81.887 10.211-141.425 0.642-49.745-0.213-76.588-3.811-119.704zM712.636 133.596l-26.491 0.327-1.163 282.572-22.966 0.291c-17.763 0.244-23.154-0.022-23.583-1.163-0.308-0.813-0.678-64.51-0.836-141.577l-0.29-140.123-51.746-0.654v-44.152l152.914 0.618 0.654 43.534-26.491 0.327zM875.108 295.558v121.517h-41.862v-12.791c0-9.623-0.367-12.791-1.49-12.791-0.82 0-4.613 3.172-8.431 7.049-8.279 8.409-18.086 15.183-26.455 18.315-17.331 6.484-33.794 2.7-40.809-9.375-6.419-11.055-6.541-13.526-6.541-128.168v-105.274h41.827l0.327 99.132c0.312 97.411 0.357 99.197 2.688 103.166 3.091 5.26 7.804 6.673 15.298 4.615 4.409-1.212 7.418-3.353 14.572-10.466l9.012-8.976v-187.473h41.862v121.517zM1038.379 399.705c-3.686 8.212-11.903 16.255-18.641 18.243-17.583 5.191-31.688 0.962-47.967-14.354-5.052-4.752-9.755-8.612-10.466-8.612-0.856 0-1.308 3.724-1.308 11.047v11.047h-41.862v-327.923h41.862v53.491c0 29.42 0.393 53.491 0.872 53.491s4.894-3.904 9.812-8.649c11.314-10.921 20.774-15.7 32.779-16.607 21.405-1.62 34.163 9.397 40.009 34.559 1.823 7.848 1.999 16.813 1.999 89.539-0.001 88.589-0.011 88.959-7.088 104.728zM1215.495 351.084c-0.372 9.113-1.477 19.569-2.471 23.257-5.821 21.584-21.318 36.865-43.716 43.135-30.158 8.439-63.352-5.389-76.602-31.906-7.438-14.885-7.704-17.853-7.704-90.593 0-59.309 0.209-66.585 2.107-74.677 5.373-22.894 18.696-37.711 41.245-45.933 6.534-2.382 13.354-3.603 20.168-3.743 24.336-0.499 48.492 12.59 58.614 33.904 6.83 14.38 7.675 20.53 8.359 61.050l0.618 36.339-89.248 0.618-0.327 24.42c-0.465 34.45 1.858 45.044 11.157 51.31 7.822 5.27 19.84 4.873 26.382-0.872 6.131-5.384 7.863-11.168 8.466-28.053l0.545-14.827h43.098l-0.69 16.572z"></path>
</svg>
